<svg xmlns="http://www.w3.org/2000/svg" width="65.407" height="87.654" viewBox="0 0 65.407 87.654"><defs><style>.a{fill:#292626;}.b{fill:#380c24;}.c{fill:#4d082c;}.d{fill:#deb7d6;}.e{fill:#4a1c60;}.f{fill:#d7b243;}.g{fill:#904377;}.h{fill:#e6cb58;}.i{fill:#d4b95c;}</style></defs><g transform="translate(-38.237 -265.795)"><path class="a" d="M112.721,433.484l-.031-.047A.155.155,0,0,0,112.721,433.484Z" transform="translate(-41.765 -94.04)"/><g transform="translate(38.25 345.038)"><path class="a" d="M39.319,446.508l.933,2.9.933-2.9h.7l.933,2.9.933-2.9H44.8l-1.492,4.383h-.854l-.92-2.661-.92,2.661h-.854l-1.491-4.383Z" transform="translate(-38.267 -446.41)"/><path class="a" d="M58.34,446.508v4.383H57.328v-4.383Z" transform="translate(-48.959 -446.41)"/><path class="a" d="M64.854,450.891v-4.383h.881l2.379,2.825v-2.825h1.012v4.383h-.88l-2.379-2.838v2.838Z" transform="translate(-53.181 -446.41)"/><path class="a" d="M82.233,447.362H80.768v.848h1.393v.854H80.768v.973h1.466v.854H79.756v-4.383h2.477Z" transform="translate(-61.541 -446.41)"/><path class="a" d="M99.644,450.627a2.038,2.038,0,0,1-.966.237,2.346,2.346,0,0,1-1.721-.638,2.347,2.347,0,0,1,0-3.311,2.324,2.324,0,0,1,1.636-.631,2.615,2.615,0,0,1,1.052.243v1.17a1.39,1.39,0,0,0-1.025-.466,1.228,1.228,0,0,0-.893.342,1.4,1.4,0,0,0-.414,1.012,1.282,1.282,0,0,0,1.327,1.334,1.383,1.383,0,0,0,1.005-.453Z" transform="translate(-70.806 -446.284)"/><path class="a" d="M112.4,446.921a2.331,2.331,0,0,1,0,3.3,2.34,2.34,0,0,1-1.7.644A2.41,2.41,0,0,1,109,450.22a2.238,2.238,0,0,1-.684-1.63,2.449,2.449,0,0,1,.677-1.662,2.591,2.591,0,0,1,3.41-.007Zm-2.661.67a1.342,1.342,0,0,0-.388.992,1.306,1.306,0,0,0,.4.985,1.288,1.288,0,0,0,.94.361,1.294,1.294,0,0,0,1.354-1.354,1.381,1.381,0,0,0-.381-.985,1.405,1.405,0,0,0-.966-.374A1.345,1.345,0,0,0,109.743,447.591Z" transform="translate(-77.562 -446.284)"/><path class="a" d="M123.428,450.891l.7-4.383h.841l1.091,2.622,1.091-2.622h.841l.7,4.383h-1.012l-.348-2.615-1.1,2.615h-.355l-1.1-2.615-.348,2.615Z" transform="translate(-86.039 -446.41)"/><path class="a" d="M141.685,446.508a1.646,1.646,0,0,1,1.149.361,1.348,1.348,0,0,1,.427,1.065,1.407,1.407,0,0,1-.374,1.031,1.5,1.5,0,0,1-1.117.388h-.618v1.537H140.14v-4.383Zm-.533,2.017h.361a.776.776,0,0,0,.546-.164.613.613,0,0,0,.164-.434.578.578,0,0,0-.164-.427.791.791,0,0,0-.565-.165h-.342Z" transform="translate(-95.413 -446.41)"/><path class="a" d="M152.772,450.063h-1.656l-.335.828H149.73l1.768-4.383h.926l1.728,4.383H153.1Zm-.276-.776-.539-1.472-.545,1.472Z" transform="translate(-100.793 -446.41)"/><path class="a" d="M163.914,450.891v-4.383h.881l2.378,2.825v-2.825h1.012v4.383h-.88l-2.379-2.838v2.838Z" transform="translate(-108.749 -446.41)"/><path class="a" d="M179.293,448.847l-1.57-2.339h1.2l.88,1.36.881-1.36h1.2l-1.57,2.339v2.043h-1.012Z" transform="translate(-116.496 -446.41)"/></g><rect class="a" width="65.406" height="0.73" transform="translate(38.237 340.562)"/><g transform="translate(38.95 323.336)"><path class="a" d="M39.86,397.275h1.963v11.111h3.5v1.852H39.86Z" transform="translate(-39.86 -397.09)"/><path class="a" d="M56.758,409.326a3.047,3.047,0,0,1-.87-2.269v-7.073a3.047,3.047,0,0,1,.87-2.269,3.442,3.442,0,0,1,4.555,0,3.046,3.046,0,0,1,.871,2.269v7.073a3.046,3.046,0,0,1-.871,2.269,3.442,3.442,0,0,1-4.555,0ZM59.906,408a1.321,1.321,0,0,0,.316-.944v-7.073a1.324,1.324,0,0,0-.316-.945,1.3,1.3,0,0,0-1.74,0,1.323,1.323,0,0,0-.314.945v7.073a1.32,1.32,0,0,0,.314.944,1.3,1.3,0,0,0,1.74,0Z" transform="translate(-48.851 -396.854)"/><path class="a" d="M75.247,397.275h2.167l2.5,8.7v-8.7H81.84v12.963H79.766l-2.593-8.3v8.3H75.247Z" transform="translate(-59.711 -397.09)"/><path class="a" d="M95.661,397.275h5.575v1.852H97.624v3.611h2.87v1.852h-2.87v3.8h3.611v1.852H95.661Z" transform="translate(-71.162 -397.09)"/><path class="a" d="M122.063,409.779a2.86,2.86,0,0,1-1.121-1.13,3.354,3.354,0,0,1-.4-1.648v-.464l1.889-.2v.482a1.706,1.706,0,0,0,.334,1.111,1.131,1.131,0,0,0,.926.407,1.258,1.258,0,0,0,.917-.333,1.208,1.208,0,0,0,.342-.908,2.228,2.228,0,0,0-.36-1.2,9.6,9.6,0,0,0-1.436-1.593,11.405,11.405,0,0,1-1.972-2.278,3.87,3.87,0,0,1-.528-1.981,3.287,3.287,0,0,1,.8-2.324,3.19,3.19,0,0,1,4.369.009,3.322,3.322,0,0,1,.8,2.333v.333l-1.889.2v-.371a1.928,1.928,0,0,0-.278-1.129.919.919,0,0,0-.8-.389,1,1,0,0,0-.8.315,1.36,1.36,0,0,0-.278.926,2.108,2.108,0,0,0,.371,1.176,11.759,11.759,0,0,0,1.426,1.62,13.578,13.578,0,0,1,1.971,2.324,3.685,3.685,0,0,1,.528,1.936,3.354,3.354,0,0,1-.4,1.648,2.855,2.855,0,0,1-1.12,1.13,3.537,3.537,0,0,1-3.3,0Z" transform="translate(-85.12 -396.854)"/><path class="a" d="M137.71,397.275h6.259v1.852h-2.149v11.111h-1.962V399.127H137.71Z" transform="translate(-94.75 -397.09)"/><path class="a" d="M157.227,407.368h-2.111l-.426,2.87h-1.963l2.149-12.963H157.5l2.149,12.963h-2Zm-.26-1.889-.8-5.426-.8,5.426Z" transform="translate(-103.173 -397.09)"/><path class="a" d="M176.874,410.238l-1.426-5.352h-1.018v5.352h-1.963V397.275h3.074a3.01,3.01,0,0,1,2.24.843,3.062,3.062,0,0,1,.834,2.251v1.426a3.389,3.389,0,0,1-.353,1.574,2.618,2.618,0,0,1-1,1.074l1.648,5.8Zm-2.445-7.2h1.018a1.095,1.095,0,0,0,1.2-1.2v-1.5a1.095,1.095,0,0,0-1.2-1.2h-1.018Z" transform="translate(-114.246 -397.09)"/></g><g transform="translate(38.237 352.696)"><rect class="a" width="65.407" height="0.753"/></g><g transform="translate(40.9 265.795)"><path class="b" d="M72.917,297.6c-.223.445-.223.791-.445,1.063s1-.506-.222.272-2.224,1.334-2.335,1.668a6.023,6.023,0,0,1-.445.889c-.334.667-.334.778-.556,1.223s-.556,1.446-.556,1.446a13.3,13.3,0,0,0,2.46,0c.532-.148-1.035.259.532-.148a10.889,10.889,0,0,1,2.457-.408s.778.667,1.112.112,2.557-.445,2.557-.445l-2.113-.89.111-1.334.111-1.557v-2.446S73.14,297.156,72.917,297.6Z" transform="translate(-57.797 -283.325)"/><path class="b" d="M136.87,286.392c1.334-.334,2.446-.222,2.836-.667s-.5.223.389-.445.667-.857,1.446-1.151,1.334-.517,1.334-.517a1.7,1.7,0,0,0,1.668,0l1.112-.445a2.288,2.288,0,0,1,1,0c.667.111-.111-.111.667.111a4.1,4.1,0,0,1,1.445.851s-.222,1.373-.889,1.484-.111,0-.667.111l-.556.112-.445,1,.778,1.724.334,1.279a1.562,1.562,0,0,1-.445.951c-.445.494-.89.716-1.112,1.05s.167.267-.556.922l-.723.656h0a4.087,4.087,0,0,0-1.278-1.244c-1.16-.491-.04-.385-1.688-.693a11.967,11.967,0,0,0-2.427-.308c-.331,0,.9.221-.331,0s-1.448.224-1.782.224.331.556-.333,0l-.665-.556s.1.022.031-.712.142.112-.072-.734.089-.3-.214-.846A1.549,1.549,0,0,1,136.87,286.392Z" transform="translate(-95.51 -275.512)"/><path class="b" d="M97.111,353.955s2.057.909,2.558,1.177-.389,1.131,1.223,1.117.612.319,1.612-.015a8.432,8.432,0,0,0,2.02-1.1l2.316-1.4,2.669-1.334,1.613-.754,2.113-1.47-2.669-1.446-2.113-1.445a16.636,16.636,0,0,1-2.446-3c.593-.964-1.11-1.557-1.11-1.557l-1.855-1.557c1.186.556-.166,1.557-.519,2.224l-.352.667a7.218,7.218,0,0,1-1.278,1.167,7.083,7.083,0,0,1-2.447.241l.223,2.706-.834,2-1.7,2.058Z" transform="translate(-73.379 -308.075)"/><path class="b" d="M83.245,280.567c.393-.651.281-.462,1.059-1.124l.778-.663c.667-.568-.222-.284.667-.568s0-.473.889-.284.223.189.89.189H88.2a2.348,2.348,0,0,0,.667-.663c.334-.473-.889-.284.334-.473a6.317,6.317,0,0,1,2,0h.334l1.223.19-2.446,1.561-1.223.332s.07,1.176-1.086.946-1.027.924-1.472.557l-.445-.367s1.231.487-.608.1S83.245,280.567,83.245,280.567Z" transform="translate(-66.148 -272.023)"/><path class="c" d="M123.851,300.179a3.372,3.372,0,0,1,1.109,0c.445.111-1.112-.112.445.111s.556.222,1.557.222h1.557s1,.334,1.779.667,0-.111.778.334.222-.445.778.445l.556.89.778,1.446,1.112,1.557a3.384,3.384,0,0,0,1,1.334,4.815,4.815,0,0,1,1.112,1.335c1.112,1.112,1.112,1.223,1.668,1.334s-.445-.445.556.111l1,.556.89.486.445,1.4v2c1.112,1.112,1.223,1,1.445,1.668l.223.667-.89,1c-.556,1.223-.778,1.112-.667,1.891a5.278,5.278,0,0,1,0,1.446,6.967,6.967,0,0,1-1.89,2.224,6.605,6.605,0,0,0-.89.445c-.778.445.445-.334-.778.445a12.055,12.055,0,0,0-1.891,1.445s-.889.556-1.891,1.112l-1,.556a6.407,6.407,0,0,1-2,.556,13.557,13.557,0,0,0-2.446.556l-1.779.556s-1.112.556-1.557,0,.691-.334-1.045-.667-1.4.223-2.4-.556l-1-.778a5.857,5.857,0,0,1-1.668-.667c-.667-.445.778.556-.667-.445a14.058,14.058,0,0,1-1.446-1l-1-.778-1.446-2.224-1.11-.556v-1l-.669-1v-1.223" transform="translate(-82.562 -285.055)"/><path class="c" d="M84.757,290.371a3.2,3.2,0,0,0-1.224-1.224c-1-.667-.778-.222-1.89-.89s-1.557-.778-1.891-1.445-.667-1-.556-1.557-1.223-.667-1.223-.667a4.1,4.1,0,0,1-.667-1.779c0-.778-.112-.222,0-.778s-.432-1.557-.05-1.89.383.445.383-.334.223-.223,0-.778l-.222-.556a4.278,4.278,0,0,0-1.223-.89c-.445-.111-.667-.778-.667-.778l1.557-1.779c1.668-.89.89-.667,2.224-1s.778-.223,1.334-.334.445.445,1.112,0,1.223-.778,1.223-.778l1.779-.556,1.112-1a12.6,12.6,0,0,0,2.113-.889l.445-.334h1.334c1.446-.334,1,.667,2.224,0l1.223-.667a.627.627,0,0,0,.667,0l.334-.222,1.112-.667s.445-.445,1.112-1,1.557-1.335,1.557-1.335L99.1,265.8h.778v1.112c-.445,1.446-.445.445-.445,1.446v1l.445.778a13.558,13.558,0,0,0,1.891.556h.334l.667.222c.112,1.335.223-.111.112,1.335s.425-.223.046,2.224l-.38,2.446a1.666,1.666,0,0,0,0,1.168c.222.723.7.612.518,1.39s.266.445.041,1.446a3.411,3.411,0,0,0,.065,1.779,1.887,1.887,0,0,0-.846,1,10.171,10.171,0,0,1-.778,1.445l-.889,1.446s.667-.334-1,1.223L97.99,289.37l-1,.445A11.385,11.385,0,0,1,95.1,291.26l-.556.222" transform="translate(-61.818 -265.795)"/><path class="c" d="M61.742,310.879l-1.395-.506h-1l-.445.445c-.445.445-.667,0-.89,0s-1.223.334-3.336.889l-1.891.667-.778,1s-.111.778-.334,1.89-.111.556-.556,1.487-.556.626-.556.626l-.334.334c-.334.333-.778-.112-1.445,0s-.778.333-1.446.89,0,0-1.112,1.334l-1.334,3-.587,2.78v6.6l.921,2.189.667,1.335.778,1.334,1.557.667,1.335.445c1.334.445.778.111,1.445.222s.667.445,1.557.89,0,0,1.223-.556,0,0,.556-.307,1.223.085,2.224,0a4,4,0,0,1,1.446-.043,7.306,7.306,0,0,0,1.557,0,11.9,11.9,0,0,1,2.78-.046c1.446.161,1-.161,2-.05a9.005,9.005,0,0,0,1.779,0c.445,0,0,0,1-1.112a6.807,6.807,0,0,0,1.223-1.668l.556-.642a13.918,13.918,0,0,1,2.113-1.915v-1.112c0-.556.334-.556.889-1.335s0,0-.077-.556.856-.445,1.078-.778a4.9,4.9,0,0,1,1.334-1.223c.667-.445,0-1.223,0-1.223v-1.779" transform="translate(-44.303 -290.801)"/><path class="d" d="M112.538,343.666v1.876s-.256,1.333.706.406c0,0,0-1.153-.037-1.3s.184-.838-.669-.984" transform="translate(-82.562 -309.477)"/><path class="e" d="M78.735,296.914a3.852,3.852,0,0,1,0,.8c-.037.612-.523.686.017,1.278s1.577.89,1.281,1.335l-.3.445-1.854-.828c.074.9-.667.671.445,1.973s1.112,1.45,1.335,1.672.327.741.423.852-.423,0-.423,0l-.927.112a1.047,1.047,0,0,1,0,.955c-.259.515-1.026.527-1.026.527l-.144.741-.942.816a4.1,4.1,0,0,0-1.483.741c-.593.519-.89.983-1.335,1.122a3.471,3.471,0,0,0-.964.583v.782l-.371,2.331-.519.741-.445,1.631.519,1.26,1.483,1.038.667.371H76.7a1.42,1.42,0,0,0-.3,2c.816,1.186,1.779,1.186,1.927,1.483s.148-.074.408.742.334,1.186.778,1.26-1.705.519,1.483,0a14.019,14.019,0,0,0,3.633-.815s-1.112-.445,0-1.186-.3.148,1.112-.741S88,319.377,88,319.377a.949.949,0,0,1,.671-.667c.556-.148-.63-.148.556-.148s.819-.671,1.855.48,1.259,1.447,1.7,1.67-1.779.519,1.408.742,2.224.593,3.188.222-.222.593,1.631-.445,1.927-1.408,1.927-1.408.728.222.883,0-.141.3.526-.3a3.151,3.151,0,0,0,1.038-1.334c.074-.3-.222.148.3-.667s.741-.445.815-2,.074-1.186.074-1.557-.3.074.519-.964l.815-1.038-.426-1.145V308.7a8,8,0,0,0-1.576-2.521,5.665,5.665,0,0,0-2.082-1.742c-.512-.259.346.118-.512-.259s.212.432-.857-.377-1.07-1.032-1.663-1.254l-.593-.223-.074-1.612-.3-2.688.148-1.112s-.667-.3-.667,0v.3l-.815-.964-.667-1.112h-.964l-.3.667L93.6,294.69a7.177,7.177,0,0,0-1.928-1.038,3.305,3.305,0,0,0-.964,0s-.89-.078-1.112-.373l-.222-.295-.7.742L88,294.839v.667l-.923-1.26v-.667s.371-.226-.593-.3a1.736,1.736,0,0,0-1.334.3s-.445.593-.815.223.445-.89-.371-.371a9.09,9.09,0,0,0-1.642,1.483c-.879-.3-.434-.519-.879-.3s-.371.223-.815.667a2.9,2.9,0,0,0-.593,1.327Z" transform="translate(-59.563 -281.047)"/><g transform="translate(26.227 10.727)"><path class="f" d="M105.041,300.7l-1,.777s-.055-.027.5.306a2.492,2.492,0,0,1,.835.612l.833.834a2.2,2.2,0,0,0,.856.278h.911c.846,0,.854.167,1.156,0s.024-.44.413-.609.167.276.389-.169l.223-.445s.055,0,0-.807a2.837,2.837,0,0,0-.315-1.421l-.13-.107-.994-1.15Z" transform="translate(-104.039 -295.037)"/><g transform="translate(1 0)"><g transform="translate(0 0.855)"><path class="g" d="M107.531,298.516a1.1,1.1,0,0,1-.151-.083c-.022-.015-.021-.014,0,0l-.028-.025c-.018-.018-.036-.034-.054-.053s-.064-.078-.042-.048-.021-.033-.025-.039a1.167,1.167,0,0,1-.081-.152c.022.053-.007-.026-.01-.036-.007-.025-.016-.05-.022-.075s-.034-.164-.027-.112a1.6,1.6,0,0,1,0-.345c0,.033.008-.039.01-.046.008-.036.016-.071.026-.106a1.794,1.794,0,0,1,.063-.189,2.372,2.372,0,0,1,.2-.371,6.14,6.14,0,0,1,.547-.7.392.392,0,0,0,0-.541.385.385,0,0,0-.541,0,3.626,3.626,0,0,0-1.073,1.957,1.615,1.615,0,0,0,.82,1.618.394.394,0,0,0,.523-.137.386.386,0,0,0-.137-.524Z" transform="translate(-106.317 -294.035)"/><path class="g" d="M109.938,302.07c-.849-.969-.112-2.382.387-3.318.232-.434-.429-.821-.661-.386a6.447,6.447,0,0,0-.844,2.238,2.565,2.565,0,0,0,.576,2.007.383.383,0,0,0,.541-.541Z" transform="translate(-107.71 -295.54)"/><path class="g" d="M114.649,295.277a4.468,4.468,0,0,0,.379-2.824.386.386,0,0,0-.471-.267.391.391,0,0,0-.267.471,3.261,3.261,0,0,1,.058.554c0,.1,0,.206,0,.308,0,.051-.007.1-.011.154,0,.017-.013.132-.009.1a3.688,3.688,0,0,1-.336,1.123.393.393,0,0,0,.137.524.386.386,0,0,0,.523-.137Z" transform="translate(-110.594 -292.174)"/><path class="g" d="M112.948,304.214a4.862,4.862,0,0,0,.61-3.137.385.385,0,0,0-.471-.267.393.393,0,0,0-.267.471,4.034,4.034,0,0,1-.533,2.548.383.383,0,0,0,.661.386Z" transform="translate(-109.635 -297.012)"/></g><rect class="e" width="1.004" height="3.047" rx="0.434" transform="translate(1.881 0.736) rotate(32.988)"/><rect class="e" width="1.004" height="2.26" rx="0.434" transform="translate(2.265 2.982) rotate(32.988)"/><rect class="e" width="1.004" height="2.26" rx="0.434" transform="translate(2.72 3.753) rotate(-11.372)"/><rect class="e" width="1.004" height="2.26" rx="0.434" transform="translate(3.04 0.379) rotate(-22.164)"/></g></g><g transform="translate(10.885 11.348)"><path class="g" d="M90.422,344.864a14.187,14.187,0,0,0-3.727,1.67c-.277.175-.021.617.257.44a13.708,13.708,0,0,1,3.606-1.618.255.255,0,0,0-.136-.492Z" transform="translate(-78.901 -321.491)"/><path class="g" d="M88.815,346.025q-1.4.7-2.78,1.429-.68.36-1.354.729-.348.191-.7.383l-.346.193c-.027.015-.277.173-.271.175l.187.246,0-.031-.187.246.033-.014-.288-.117.011.019a.255.255,0,0,0,.44-.258l-.011-.019a.258.258,0,0,0-.288-.117l-.033.014a.274.274,0,0,0-.187.246l0,.031a.256.256,0,0,0,.187.246c.23.072.428-.094.621-.2q.367-.206.737-.41.739-.407,1.484-.8,1.488-.794,3-1.545c.294-.147.036-.587-.258-.441Z" transform="translate(-76.919 -322.132)"/><path class="g" d="M89.575,347.223q-3.326,1.586-6.514,3.441a.258.258,0,0,0,.061.466l.2.067c.313.1.447-.39.136-.492l-.2-.067.061.466q3.185-1.854,6.514-3.441c.3-.141.038-.581-.258-.441Z" transform="translate(-76.86 -322.805)"/><path class="g" d="M87.9,348.506a79.192,79.192,0,0,0-7.808,4.386c-.232.148-.088.568.2.466l.56-.2c.307-.11.174-.6-.136-.492l-.56.2.2.466a79.364,79.364,0,0,1,7.808-4.386c.3-.144.036-.584-.257-.44Z" transform="translate(-75.198 -323.524)"/><path class="g" d="M89.732,349.1a70.442,70.442,0,0,1-7.2,4.507c-.288.157-.031.6.258.441a70.579,70.579,0,0,0,7.2-4.507c.265-.189.011-.632-.257-.44Z" transform="translate(-76.561 -323.846)"/><path class="g" d="M91.525,350.477Q88.3,352.67,85.177,355c-.151.112-.183.432.061.466a.945.945,0,0,0,.671-.126c.279-.173.023-.614-.257-.44a.389.389,0,0,1-.278.074l.061.466q3.125-2.33,6.349-4.523c.27-.184.015-.626-.257-.441Z" transform="translate(-78.05 -324.621)"/><path class="g" d="M93.9,351.094l-5.383,3.889a.256.256,0,0,0,.2.466l.191-.034c.323-.057.186-.549-.136-.492l-.191.034.2.466,5.382-3.889c.264-.191.009-.633-.257-.44Z" transform="translate(-79.924 -324.965)"/><path class="g" d="M96.138,351.133q-2.059,2.129-4.23,4.146c-.241.224.121.584.361.361q2.17-2.016,4.23-4.147c.228-.236-.132-.6-.361-.36Z" transform="translate(-81.848 -324.971)"/><path class="g" d="M98.338,350.976l-4.125,4.757c-.182.209.049.558.309.4l.637-.387a.255.255,0,0,0-.258-.44l-.637.387.309.4,4.126-4.758c.214-.247-.145-.609-.361-.361Z" transform="translate(-83.148 -324.879)"/><path class="g" d="M101.017,353.075l-.978,2.12c-.158.343-.321.685-.475,1.031-.067.149-.1.333.05.448a.283.283,0,0,0,.421-.1.266.266,0,0,0-.04-.309l-.011-.012c-.22-.245-.58.117-.36.361l.011.012-.04-.309-.008.017.092-.092-.018.011.2-.025-.02,0,.153.117-.013-.027.035.129c0-.011.073-.135.089-.169l.082-.177.19-.412.353-.766.734-1.59a.263.263,0,0,0-.091-.349.257.257,0,0,0-.349.092Z" transform="translate(-86.154 -326.033)"/><path class="g" d="M104.136,351.693a14.631,14.631,0,0,0-1.127,2.514.255.255,0,0,0,.492.136,13.859,13.859,0,0,1,1.076-2.392.255.255,0,0,0-.441-.258Z" transform="translate(-88.113 -325.258)"/><path class="g" d="M86.595,343.551q-2.741,1.117-5.5,2.189c-.3.118-.171.611.135.492q2.759-1.072,5.5-2.189c.3-.122.169-.616-.136-.492Z" transform="translate(-75.73 -320.75)"/><path class="g" d="M82.336,342.41l-3.6,1.349-1.752.656-.9.338-.474.177-.189.071c.01,0-.265.082-.164.1l.178.178-.006-.015c-.124-.3-.618-.168-.492.136.118.284.341.194.573.108l.994-.373,1.989-.746,3.979-1.491c.3-.114.173-.608-.136-.492Z" transform="translate(-72.361 -320.111)"/><path class="g" d="M81.468,341.343l-6.977,1.819a.255.255,0,0,0,.136.492l6.977-1.819a.255.255,0,0,0-.136-.492Z" transform="translate(-72.02 -319.517)"/><path class="g" d="M80.516,339.766l-7.046,1.167c-.323.053-.186.545.136.492l7.046-1.167c.323-.053.186-.545-.136-.492Z" transform="translate(-71.445 -318.635)"/><path class="g" d="M79.051,338.223l-6.735.963c-.324.046-.186.538.135.492l6.736-.963c.324-.046.186-.538-.136-.492Z" transform="translate(-70.798 -317.77)"/><path class="g" d="M76.306,336.067l-3.486.228-1.718.112-.859.056-.4.027-.252.016c-.052,0-.184-.023-.111.02l.126.22,0-.029-.075.18.02-.022-.248.066.023.005c.32.071.457-.421.136-.492l-.023-.005a.257.257,0,0,0-.248.066.292.292,0,0,0,.072.475.743.743,0,0,0,.38.023l.505-.033,2.071-.136,4.092-.268c.326-.021.328-.532,0-.51Z" transform="translate(-69.094 -316.562)"/><path class="g" d="M79.146,333.977l-6.06-.256c-.282-.012-.354.45-.068.5a1.339,1.339,0,0,0,.709-.049c.306-.11.174-.6-.136-.492a.821.821,0,0,1-.438.049l-.068.5,6.06.256c.328.014.328-.5,0-.51Z" transform="translate(-71.193 -315.215)"/><path class="g" d="M81.489,331.909a30.122,30.122,0,0,0-4.216-.768c-.326-.036-.323.475,0,.51a29.177,29.177,0,0,1,4.08.749.255.255,0,0,0,.136-.492Z" transform="translate(-73.546 -313.798)"/><path class="g" d="M82.992,329.8l-2.3-.816a.258.258,0,0,0-.314.178.261.261,0,0,0,.178.314l2.3.816a.255.255,0,1,0,.136-.492Z" transform="translate(-75.42 -312.583)"/><path class="g" d="M85.733,328l-3.267-1.4a.264.264,0,0,0-.349.092.257.257,0,0,0,.092.349l3.267,1.4a.264.264,0,0,0,.349-.092.257.257,0,0,0-.092-.349Z" transform="translate(-76.381 -311.238)"/><path class="g" d="M87.936,326.707,86,325.618a.255.255,0,0,0-.258.44l1.941,1.089a.255.255,0,0,0,.257-.441Z" transform="translate(-78.361 -310.682)"/><path class="g" d="M87.08,324.739l-2.471-1.594c-.277-.178-.533.263-.257.441l2.471,1.594c.277.179.533-.263.257-.44Z" transform="translate(-77.587 -309.29)"/><path class="g" d="M92.487,321.138a32.217,32.217,0,0,1-2.993-3.172c-.209-.254-.568.109-.361.36a32.234,32.234,0,0,0,2.993,3.172c.241.223.6-.137.361-.36Z" transform="translate(-80.301 -306.36)"/><path class="g" d="M91.368,317.136l-2.733-3.344a.257.257,0,0,0-.361,0,.261.261,0,0,0,0,.361l2.733,3.344a.257.257,0,0,0,.361,0,.261.261,0,0,0,0-.361Z" transform="translate(-79.813 -304.025)"/><path class="g" d="M87.673,310.1l1.956,2.759c.312.439.6.916.946,1.33a.359.359,0,0,0,.542.077.315.315,0,0,0-.058-.493c-.265-.195-.519.248-.257.44l.024.018-.117-.153q.394-.09.22-.266l-.1-.134-.191-.269-.334-.471-.739-1.043-1.455-2.052c-.188-.266-.631-.011-.441.257Z" transform="translate(-79.49 -301.788)"/><path class="g" d="M90.029,308.754l1.6,2.222.781,1.084c.11.153.209.307.411.332a.3.3,0,0,0,.357-.3.255.255,0,0,0-.51,0v.028l.075-.18c.14.027.2.011.167-.051l-.08-.111-.16-.222-.32-.444-.621-.861L90.47,308.5c-.19-.264-.633-.009-.44.258Z" transform="translate(-80.811 -301.034)"/><path class="g" d="M89.793,304.582l3.6,4.84c.194.26.637.006.44-.257l-3.6-4.84c-.194-.26-.637-.006-.44.257Z" transform="translate(-80.678 -298.695)"/><path class="g" d="M91.361,301.835q1.887,3.109,3.674,6.278a.255.255,0,0,0,.44-.258q-1.786-3.168-3.674-6.277a.255.255,0,0,0-.44.257Z" transform="translate(-81.564 -297.148)"/><path class="g" d="M92.727,300.041c.16.043.26.239.348.367s.191.285.28.432c.178.292.34.595.489.9a19.979,19.979,0,0,1,.776,1.893c.232.639.451,1.282.691,1.918a2.618,2.618,0,0,0,.377.861.353.353,0,0,0,.6-.147c.109-.31-.384-.444-.492-.136l-.018.05.117-.153.018-.015.18.075c-.1-.078-.137-.274-.182-.389q-.087-.222-.17-.445c-.111-.3-.218-.6-.324-.9-.212-.6-.423-1.2-.659-1.788a14.349,14.349,0,0,0-.791-1.692c-.147-.261-.305-.517-.477-.763a1.2,1.2,0,0,0-.628-.566.255.255,0,0,0-.136.492Z" transform="translate(-82.25 -296.072)"/><path class="g" d="M94.612,298.092A21.472,21.472,0,0,1,96.8,305.46c.035.323.546.327.511,0a22.169,22.169,0,0,0-2.259-7.625c-.148-.293-.589-.035-.44.257Z" transform="translate(-83.392 -295.044)"/><path class="g" d="M97.639,294.207a85.088,85.088,0,0,1,2.015,8.28c.061.322.554.186.492-.135a84.933,84.933,0,0,0-2.016-8.28.255.255,0,0,0-.492.136Z" transform="translate(-85.1 -292.904)"/><path class="g" d="M100.405,294.509q.734,4.642,1.581,9.263c.059.323.551.186.492-.136q-.848-4.622-1.581-9.263c-.051-.324-.543-.186-.492.135Z" transform="translate(-86.656 -293.071)"/><path class="g" d="M102.355,293.341q.639,3.793.912,7.633c.023.325.534.328.51,0q-.278-3.9-.93-7.769c-.054-.323-.546-.186-.492.136Z" transform="translate(-87.75 -292.416)"/><path class="g" d="M104.009,294.449l.493,8.07a.258.258,0,0,0,.436.18l.259-.286c.22-.243-.14-.605-.361-.361l-.259.286.436.18-.493-8.07c-.02-.326-.53-.328-.51,0Z" transform="translate(-88.68 -293.079)"/><path class="g" d="M106.436,295.443a27.236,27.236,0,0,0,.109,3.615l.252,3.65c.022.326.533.328.51,0l-.252-3.65a27.232,27.232,0,0,1-.109-3.615c.021-.327-.49-.326-.51,0Z" transform="translate(-90.026 -293.637)"/><path class="g" d="M108.126,295.616a41.146,41.146,0,0,1,.109,7.695c-.017.212.224.293.384.22a.9.9,0,0,0,.4-.37.255.255,0,0,0-.441-.257.432.432,0,0,1-.22.187l.384.22a41.147,41.147,0,0,0-.109-7.695c-.035-.323-.546-.327-.51,0Z" transform="translate(-90.988 -293.734)"/><path class="g" d="M110.108,301.7q-.043,1.594-.015,3.188c.01.514.007,1.033.046,1.545a.441.441,0,0,0,.246.426.34.34,0,0,0,.424-.153.255.255,0,0,0-.44-.257l-.021.035.152-.117q.2.167.145-.03l0-.1c0-.112-.008-.225-.012-.338q-.009-.29-.016-.58-.015-.6-.019-1.207-.009-1.208.025-2.415a.255.255,0,0,0-.51,0Z" transform="translate(-92.087 -297.147)"/><path class="g" d="M111.234,292.92a24.474,24.474,0,0,1-.208,4.782c-.091.789-.188,1.578-.258,2.369a7.176,7.176,0,0,0-.071,1.122.482.482,0,0,0,.431.5c.325.042.322-.468,0-.51.159.021.04.03.077-.075a1.031,1.031,0,0,0,.014-.247q.016-.272.039-.544c.028-.346.062-.691.1-1.037.076-.707.164-1.414.241-2.121a22.3,22.3,0,0,0,.147-4.24c-.026-.325-.537-.328-.51,0Z" transform="translate(-92.428 -292.222)"/><path class="g" d="M113,293.253a55.677,55.677,0,0,1-.386,7.932c-.039.325.472.322.51,0a55.677,55.677,0,0,0,.386-7.932.255.255,0,0,0-.51,0Z" transform="translate(-93.503 -292.408)"/><path class="g" d="M115.308,293.784a4.284,4.284,0,0,0-.31,1.682q-.058,1-.1,2-.075,2-.069,4.009a.255.255,0,0,0,.51,0q0-1.905.061-3.809.033-.927.083-1.852a4.63,4.63,0,0,1,.26-1.775c.144-.294-.3-.553-.44-.257Z" transform="translate(-94.752 -292.771)"/><path class="g" d="M117.352,295.2a59.021,59.021,0,0,0-.524,6.89.255.255,0,0,0,.51,0,57.939,57.939,0,0,1,.506-6.754c.043-.321-.449-.46-.492-.136Z" transform="translate(-95.871 -293.534)"/><path class="g" d="M118.865,296.287a36.993,36.993,0,0,1-1.246,6.619.255.255,0,0,0,.492.135,37.758,37.758,0,0,0,1.264-6.754c.031-.327-.479-.324-.51,0Z" transform="translate(-96.309 -294.111)"/><path class="g" d="M119.37,303.788a16.408,16.408,0,0,0,2.043-6.989.255.255,0,0,0-.511,0,11.3,11.3,0,0,1-.634,3.472,24.662,24.662,0,0,1-1.339,3.259c-.145.293.3.552.441.258Z" transform="translate(-97.033 -294.397)"/><path class="g" d="M119.54,306.092a30.933,30.933,0,0,0,3.21-6c.122-.3-.371-.437-.492-.136a30.387,30.387,0,0,1-3.159,5.875c-.187.271.256.527.44.258Z" transform="translate(-97.12 -296.213)"/><path class="g" d="M120.594,307.364a37.711,37.711,0,0,0,3.3-5.734c.137-.3-.3-.555-.441-.258a37.7,37.7,0,0,1-3.3,5.734c-.188.27.254.525.441.257Z" transform="translate(-97.711 -297.027)"/><path class="g" d="M120.973,309.505a13.694,13.694,0,0,0,3.8-5.02c.131-.3-.308-.558-.44-.258a13.374,13.374,0,0,1-3.725,4.917c-.254.209.109.568.36.361Z" transform="translate(-97.946 -298.627)"/><path class="g" d="M123.112,310.068a24.59,24.59,0,0,0,4.621-4.287c.209-.251-.151-.614-.361-.361a24.07,24.07,0,0,1-4.518,4.207c-.265.189-.01.632.258.441Z" transform="translate(-99.189 -299.323)"/><path class="g" d="M123.626,313.874a29.328,29.328,0,0,0,4.1-2.478c.264-.191.01-.633-.257-.44a29.436,29.436,0,0,1-4.1,2.477c-.294.146-.036.586.257.44Z" transform="translate(-99.467 -302.45)"/><path class="g" d="M125.261,317.956a35.326,35.326,0,0,0,3.424-1.287.257.257,0,0,0,.092-.349.261.261,0,0,0-.349-.091,34.141,34.141,0,0,1-3.3,1.235c-.312.1-.178.592.136.492Z" transform="translate(-100.426 -305.417)"/><path class="g" d="M137,318.729l0,0-.037.029-.076.056q-.076.055-.155.107c-.1.067-.206.13-.312.19s-.215.115-.326.166l-.086.039-.043.019c.025-.01.023-.01,0,0-.058.024-.117.047-.176.068a.261.261,0,0,0-.178.314.257.257,0,0,0,.313.178,5.315,5.315,0,0,0,1.446-.808.256.256,0,0,0,0-.361.263.263,0,0,0-.361,0Z" transform="translate(-106.396 -306.797)"/><path class="g" d="M135.556,320.081a41.351,41.351,0,0,0-4.183,1.516.257.257,0,0,0-.091.349.262.262,0,0,0,.349.092,39.989,39.989,0,0,1,4.061-1.465.255.255,0,0,0-.135-.492Z" transform="translate(-103.961 -307.588)"/><path class="g" d="M137.324,322.032l-3.56,1.107c-.313.1-.179.59.136.492l3.56-1.107c.313-.1.179-.59-.136-.492Z" transform="translate(-105.271 -308.682)"/><path class="g" d="M119.216,348.865q.677,1.683,1.474,3.313a.258.258,0,0,0,.4.052.559.559,0,0,0,.18-.461.262.262,0,0,0-.255-.255.257.257,0,0,0-.255.255c.005.054.007.065-.03.1l.4.052q-.769-1.57-1.423-3.192a.263.263,0,0,0-.313-.178.257.257,0,0,0-.178.314Z" transform="translate(-97.203 -323.56)"/><path class="g" d="M120.782,349.68a8.35,8.35,0,0,1,.985,1.516,7.905,7.905,0,0,1,.351.8,1.332,1.332,0,0,0,.437.724c.273.184.528-.257.258-.44a.494.494,0,0,1-.142-.252c-.049-.138-.1-.274-.156-.41-.114-.277-.239-.55-.379-.816a8.966,8.966,0,0,0-.993-1.48.257.257,0,0,0-.361,0,.261.261,0,0,0,0,.36Z" transform="translate(-98.049 -323.955)"/><path class="g" d="M122.659,349.153a10.787,10.787,0,0,1,1.9,2.831.257.257,0,0,0,.349.091.261.261,0,0,0,.091-.349,11.2,11.2,0,0,0-1.981-2.934c-.224-.24-.585.121-.36.361Z" transform="translate(-99.102 -323.656)"/><path class="g" d="M125.212,348.464,127,350.592l.871,1.035.448.532a.514.514,0,0,0,.517.245.257.257,0,0,0,.178-.313.261.261,0,0,0-.314-.178c.111-.018-.055-.155-.095-.2l-.2-.237-.4-.473-.821-.976-1.617-1.921c-.212-.252-.571.111-.361.36Z" transform="translate(-100.538 -323.267)"/><path class="g" d="M128.434,349.123a41.092,41.092,0,0,0,3.282,3.321c.243.22.605-.14.36-.361a41.087,41.087,0,0,1-3.282-3.32c-.217-.247-.577.115-.36.361Z" transform="translate(-102.344 -323.638)"/><path class="g" d="M129.138,347q2.262,1.54,4.445,3.19c.262.2.516-.245.258-.441q-2.184-1.65-4.446-3.19c-.272-.185-.528.256-.257.44Z" transform="translate(-102.712 -322.422)"/><path class="g" d="M131.034,347.426l4.7,2.6c.288.159.545-.282.257-.441l-4.7-2.6c-.288-.159-.545.282-.257.441Z" transform="translate(-103.769 -322.668)"/><path class="g" d="M131.682,346.449a40.629,40.629,0,0,1,4.422,2.272.255.255,0,0,0,.258-.44,40.547,40.547,0,0,0-4.423-2.272c-.3-.13-.558.309-.257.441Z" transform="translate(-104.128 -322.126)"/><path class="g" d="M130.374,345.549a25.136,25.136,0,0,1,6.883,2.6c.287.16.545-.281.257-.44a25.6,25.6,0,0,0-7-2.651c-.32-.07-.457.422-.136.492Z" transform="translate(-103.367 -321.601)"/><path class="g" d="M136.3,346.006a29.5,29.5,0,0,1,4.524,1.477c.3.127.435-.367.136-.492a29.491,29.491,0,0,0-4.524-1.478c-.319-.076-.455.415-.136.492Z" transform="translate(-106.689 -321.857)"/><path class="g" d="M132.234,343.511a34.943,34.943,0,0,1,7.21,2.325c.3.133.557-.306.257-.44a35.5,35.5,0,0,0-7.332-2.376c-.32-.066-.457.426-.136.492Z" transform="translate(-104.41 -320.459)"/><path class="g" d="M133.932,342.113a34.187,34.187,0,0,1,4.886,1.355c.31.112.443-.382.135-.492a34.066,34.066,0,0,0-4.886-1.355c-.321-.064-.458.428-.136.492Z" transform="translate(-105.362 -319.675)"/><path class="g" d="M134.761,339.651a30.321,30.321,0,0,1,4.456,1.376c.306.121.438-.372.136-.492a30.374,30.374,0,0,0-4.456-1.376c-.32-.072-.456.419-.136.492Z" transform="translate(-105.828 -318.293)"/><path class="g" d="M131.9,337.741q2.9.623,5.718,1.527c.313.1.447-.392.136-.492q-2.82-.9-5.718-1.528c-.32-.069-.457.423-.136.492Z" transform="translate(-104.224 -317.222)"/><path class="g" d="M137.707,337.574a15.655,15.655,0,0,1,2.825.652c.313.1.447-.389.136-.492a16.367,16.367,0,0,0-2.96-.671.256.256,0,0,0-.255.255.262.262,0,0,0,.255.255Z" transform="translate(-107.44 -317.121)"/><path class="g" d="M136.54,335.563a28.71,28.71,0,0,1,4.61,1,.255.255,0,0,0,.136-.492,29.525,29.525,0,0,0-4.745-1.018c-.324-.042-.321.468,0,.51Z" transform="translate(-106.792 -315.992)"/><path class="g" d="M138.153,334.18l6.156,1.17c.321.061.458-.431.136-.492l-6.157-1.169c-.32-.061-.458.431-.135.492Z" transform="translate(-107.73 -315.225)"/><path class="g" d="M137.89,333.8l5.707.15a.255.255,0,0,0,0-.51l-5.707-.15a.255.255,0,0,0,0,.51Z" transform="translate(-107.547 -315.002)"/><path class="g" d="M140.252,332.281q2.113.049,4.227-.029c.327-.012.329-.522,0-.51q-2.113.078-4.227.029a.255.255,0,0,0,0,.51Z" transform="translate(-108.873 -314.136)"/><path class="g" d="M136.71,330.451q2.59.2,5.189.175a.255.255,0,0,0,0-.51q-2.6.02-5.189-.175c-.328-.025-.326.486,0,.51Z" transform="translate(-106.886 -313.126)"/><path class="g" d="M137.72,329.38q2.114.059,4.226-.055c.327-.018.329-.528,0-.51q-2.111.113-4.226.055a.255.255,0,0,0,0,.51Z" transform="translate(-107.452 -312.494)"/><path class="g" d="M136.2,326.822a34.391,34.391,0,0,0,5.779-.364c.324-.048.186-.54-.136-.492a33.567,33.567,0,0,1-5.643.345.255.255,0,0,0,0,.511Z" transform="translate(-106.599 -310.894)"/><path class="g" d="M139.913,325.215a22.525,22.525,0,0,0,2.668-.252.257.257,0,0,0,.178-.314.261.261,0,0,0-.314-.178,21.46,21.46,0,0,1-2.532.234c-.328.011-.329.521,0,.51Z" transform="translate(-108.682 -310.055)"/><path class="h" d="M91.715,326.736a15.619,15.619,0,0,1,3.492,1.986.257.257,0,0,0,.349-.091.261.261,0,0,0-.092-.349,16.073,16.073,0,0,0-3.614-2.037.257.257,0,0,0-.314.178.261.261,0,0,0,.178.313Z" transform="translate(-81.678 -311.045)"/><path class="h" d="M88.744,326.965q2.537,1.373,5.146,2.608c.3.14.555-.3.258-.44Q91.54,327.9,89,326.524c-.288-.156-.547.284-.257.441Z" transform="translate(-80.046 -311.191)"/><path class="h" d="M88.156,329.521l5.136,1.405a.255.255,0,0,0,.136-.492l-5.136-1.4a.255.255,0,0,0-.136.492Z" transform="translate(-79.686 -312.609)"/><path class="h" d="M86.555,331.536q2.661.333,5.341.483c.328.018.327-.492,0-.51q-2.678-.15-5.341-.483c-.325-.041-.322.47,0,.51Z" transform="translate(-78.753 -313.733)"/><path class="h" d="M88.752,333.849a46.092,46.092,0,0,0,5.412,0c.327-.019.329-.529,0-.51a45.973,45.973,0,0,1-5.412,0c-.328-.019-.327.491,0,.511Z" transform="translate(-79.984 -315.032)"/><path class="h" d="M86.893,335.033a41.732,41.732,0,0,0,7.562-.771c.322-.063.186-.555-.136-.492a40.983,40.983,0,0,1-7.426.753.255.255,0,0,0,0,.51Z" transform="translate(-78.941 -315.271)"/><path class="h" d="M89.766,336.523a36.57,36.57,0,0,0,4.968-.941.255.255,0,0,0-.136-.492,35.7,35.7,0,0,1-4.832.923c-.322.038-.326.549,0,.51Z" transform="translate(-80.554 -316.009)"/><path class="h" d="M90.339,337.94q2.6-.406,5.182-.933c.321-.066.185-.558-.136-.492q-2.58.528-5.182.933c-.324.05-.186.542.136.492Z" transform="translate(-80.832 -316.81)"/><path class="h" d="M97.776,338.683l2.965-.742a.255.255,0,0,0-.136-.492l-2.965.742a.255.255,0,0,0,.136.492Z" transform="translate(-85.005 -317.333)"/><path class="h" d="M92.524,341.227q2.281-.6,4.521-1.336c.31-.1.177-.595-.136-.492q-2.239.738-4.521,1.336a.255.255,0,0,0,.136.492Z" transform="translate(-82.06 -318.424)"/><path class="h" d="M100.968,339.857l2.743-1.112a.263.263,0,0,0,.178-.313.257.257,0,0,0-.314-.178l-2.743,1.112a.263.263,0,0,0-.178.313.256.256,0,0,0,.313.178Z" transform="translate(-86.793 -317.781)"/><path class="h" d="M97.942,341.562a26.819,26.819,0,0,0,4.379-1.92c.288-.158.031-.6-.257-.44a26.068,26.068,0,0,1-4.258,1.868c-.31.1-.177.6.136.492Z" transform="translate(-85.101 -318.302)"/><path class="h" d="M103.485,340.639a14.571,14.571,0,0,0-3.6,2.229.257.257,0,0,0,.113.426.564.564,0,0,0,.606-.176.264.264,0,0,0,0-.361.257.257,0,0,0-.361,0c-.042.052-.053.063-.11.046l.113.426a14.125,14.125,0,0,1,3.5-2.149.257.257,0,0,0,.092-.349.262.262,0,0,0-.349-.092Z" transform="translate(-86.321 -319.111)"/><path class="h" d="M104.917,340.818q-1.759,1.341-3.639,2.51c-.278.173-.022.615.257.44q1.878-1.168,3.64-2.51a.264.264,0,0,0,.091-.349.257.257,0,0,0-.349-.091Z" transform="translate(-87.08 -319.206)"/><path class="h" d="M106.339,341.715l-2.2,1.934a9.523,9.523,0,0,0-1.771,1.857.258.258,0,0,0,.288.375l.52-.173c.31-.1.177-.6-.136-.492l-.52.173.288.375a9.374,9.374,0,0,1,1.75-1.805l2.139-1.882c.247-.217-.115-.577-.36-.361Z" transform="translate(-87.741 -319.693)"/><path class="h" d="M109.32,343.042q-1.07,1.321-2.018,2.736c-.183.273.259.529.44.257q.909-1.36,1.939-2.633a.262.262,0,0,0,0-.36.257.257,0,0,0-.361,0Z" transform="translate(-90.502 -320.434)"/><path class="h" d="M112.285,338.74a6.082,6.082,0,0,1,1.916,2.552.263.263,0,0,0,.314.178.257.257,0,0,0,.178-.314,6.565,6.565,0,0,0-2.048-2.777.263.263,0,0,0-.36,0,.256.256,0,0,0,0,.361Z" transform="translate(-93.281 -317.819)"/><path class="h" d="M113.637,337.327a10.273,10.273,0,0,1,3.082,3.555c.153.291.594.033.441-.258a10.836,10.836,0,0,0-3.265-3.738c-.267-.192-.522.25-.258.44Z" transform="translate(-94.018 -316.996)"/><path class="h" d="M117.086,337.5q1.5,1.43,3.119,2.737a.263.263,0,0,0,.361,0,.257.257,0,0,0,0-.361q-1.613-1.306-3.119-2.737c-.238-.226-.6.134-.361.361Z" transform="translate(-95.972 -317.126)"/><path class="h" d="M117.822,337.2l4.1,2.564c.279.175.535-.266.257-.441l-4.1-2.564c-.279-.175-.536.267-.258.441Z" transform="translate(-96.361 -316.931)"/><path class="h" d="M116.192,335.915l4.248,1.339c.314.1.448-.393.136-.492l-4.248-1.339c-.314-.1-.448.393-.136.492Z" transform="translate(-95.415 -316.194)"/><path class="h" d="M114.754,333.381q2.57.251,5.126.625c.321.047.46-.445.136-.492q-2.622-.385-5.262-.643c-.327-.032-.324.479,0,.51Z" transform="translate(-94.571 -314.769)"/><path class="h" d="M120.763,335.2a10.4,10.4,0,0,1,2.317,1,.255.255,0,0,0,.257-.441,10.978,10.978,0,0,0-2.439-1.052.255.255,0,0,0-.136.492Z" transform="translate(-97.978 -315.794)"/><path class="h" d="M119.652,332.193a53.181,53.181,0,0,0,5.334-.282c.324-.034.327-.544,0-.51a53.181,53.181,0,0,1-5.334.282.255.255,0,0,0,0,.51Z" transform="translate(-97.317 -313.944)"/><path class="h" d="M121.038,329.429a44.139,44.139,0,0,0,6.857-2.03c.3-.117.171-.611-.136-.492a44.134,44.134,0,0,1-6.857,2.03c-.321.067-.185.559.136.492Z" transform="translate(-98.054 -311.414)"/><path class="h" d="M125.867,326.1a19,19,0,0,0-4,1.862c-.279.172-.023.614.257.441a18.4,18.4,0,0,1,3.877-1.81c.31-.1.177-.6-.136-.492Z" transform="translate(-98.63 -310.964)"/><path class="h" d="M117.683,323.579l-2.592,2.708-1.282,1.339c-.156.163-.333.424-.087.6a.292.292,0,0,0,.463-.237.255.255,0,0,0-.51,0v.024l.126-.22.075-.022.18.075-.021-.019.075.18c0,.034.09-.054.089-.054.042-.037.078-.082.117-.122l.262-.274.495-.518.99-1.035,1.981-2.069c.227-.238-.133-.6-.361-.361Z" transform="translate(-94.06 -309.513)"/><path class="h" d="M116.65,322.433a31.219,31.219,0,0,1-3.241,3.432c-.244.222.118.581.36.361a31.186,31.186,0,0,0,3.241-3.432.264.264,0,0,0,0-.361.257.257,0,0,0-.361,0Z" transform="translate(-93.907 -308.873)"/><path class="h" d="M116.618,318.621q-1.543,2.52-2.863,5.166c-.146.293.294.552.441.258q1.319-2.644,2.863-5.166c.172-.281-.27-.537-.441-.257Z" transform="translate(-94.13 -306.708)"/><path class="h" d="M116.138,315.609a53.49,53.49,0,0,0-1.935,6.546c-.073.32.419.457.492.136a53.412,53.412,0,0,1,1.934-6.546c.113-.309-.38-.442-.492-.136Z" transform="translate(-94.395 -304.989)"/><path class="h" d="M97.379,317.873A12.858,12.858,0,0,1,99.66,322c.1.31.6.177.492-.136a13.531,13.531,0,0,0-2.413-4.352c-.209-.253-.569.11-.361.361Z" transform="translate(-84.926 -306.106)"/><path class="h" d="M101.362,318.7l2.008,3.45a.255.255,0,0,0,.44-.257l-2.008-3.45a.255.255,0,0,0-.44.257Z" transform="translate(-87.175 -306.605)"/><path class="h" d="M101.92,313.769a20.259,20.259,0,0,1,2.4,5.088.258.258,0,0,0,.375.153l.217-.146c.271-.182.016-.624-.258-.44l-.217.146.375.153a20.766,20.766,0,0,0-2.451-5.211c-.179-.273-.621-.018-.44.258Z" transform="translate(-87.484 -303.844)"/><path class="h" d="M106.043,314.764l.583,2.625c.1.43.18.865.287,1.293a.453.453,0,0,0,.275.355.292.292,0,0,0,.382-.2c.119-.306-.374-.438-.492-.136l-.011.029.178-.178q.217.072.142-.083l-.026-.117-.052-.235-.113-.509-.217-.979-.443-2c-.071-.32-.563-.185-.492.136Z" transform="translate(-89.817 -304.434)"/><path class="h" d="M107.565,312.567q.528,2.807.953,5.632c.027.18.243.211.375.152l.166-.074c.3-.133.04-.573-.257-.44l-.166.074.375.152q-.425-2.825-.954-5.633c-.061-.322-.552-.186-.492.136Z" transform="translate(-90.672 -303.2)"/><path class="h" d="M110.929,313.686q.019,1.779.1,3.557.041.877.1,1.752a.638.638,0,0,0,.19.53.3.3,0,0,0,.459-.086c.158-.288-.282-.546-.441-.258l-.017.032.22-.126c.106.044.139.014.1-.091,0-.067-.008-.133-.013-.2l-.018-.3q-.021-.35-.04-.7-.036-.676-.062-1.352-.053-1.377-.068-2.756a.255.255,0,0,0-.51,0Z" transform="translate(-92.562 -303.869)"/><path class="h" d="M112.125,313.773a19.428,19.428,0,0,0-.643,5.189.255.255,0,0,0,.51,0,18.866,18.866,0,0,1,.625-5.053.255.255,0,0,0-.492-.136Z" transform="translate(-92.871 -303.955)"/><path class="h" d="M114.242,312.762a51.683,51.683,0,0,0-1.113,6.372c-.036.326.475.323.51,0a50.685,50.685,0,0,1,1.094-6.236c.077-.319-.415-.455-.492-.136Z" transform="translate(-93.795 -303.387)"/><path class="i" d="M94.673,317.6a39.422,39.422,0,0,1,1.757,5.959c.068.321.56.185.492-.136a39.373,39.373,0,0,0-1.757-5.959c-.116-.3-.61-.172-.492.136Z" transform="translate(-83.433 -306.032)"/><path class="i" d="M97.279,315.441a30.115,30.115,0,0,1,1.091,4.452c.054.323.545.186.492-.136a30.186,30.186,0,0,0-1.092-4.452c-.1-.311-.594-.178-.492.136Z" transform="translate(-84.897 -304.817)"/><path class="i" d="M99.625,313.073q.182,1.3.436,2.586.125.632.269,1.26c.064.282.083.883.441.949a.262.262,0,0,0,.288-.117l.014-.027c.148-.292-.292-.551-.44-.258l-.014.027.288-.117c.115.021.025-.122.006-.2-.024-.1-.047-.2-.071-.3q-.06-.26-.117-.521-.123-.564-.231-1.132-.217-1.135-.377-2.28c-.045-.324-.537-.186-.492.136Z" transform="translate(-86.219 -303.484)"/><path class="i" d="M102.373,309.633q.077,2.006.262,4.005.091.975.208,1.946c.025.208.043.488.3.53a.308.308,0,0,0,.349-.393.255.255,0,0,0-.492.136l.01.038.066-.248-.032.034.18-.075-.047,0,.18.075q.028.09,0-.05c-.008-.066-.016-.133-.024-.2q-.023-.2-.046-.4-.045-.4-.086-.8-.076-.749-.136-1.5-.125-1.55-.184-3.105c-.012-.328-.522-.329-.51,0Z" transform="translate(-87.762 -301.596)"/><path class="i" d="M104.191,312q.041,2.6.249,5.193c.026.325.536.328.51,0q-.207-2.592-.248-5.193a.255.255,0,0,0-.51,0Z" transform="translate(-88.782 -302.922)"/><path class="i" d="M106.61,312.839a21.946,21.946,0,0,0,.221,4.823.26.26,0,0,0,.313.178.363.363,0,0,0,.239-.536c-.132-.3-.572-.04-.44.258l.065-.214.314.178a21.361,21.361,0,0,1-.2-4.687c.022-.328-.489-.326-.51,0Z" transform="translate(-90.113 -303.395)"/><path class="i" d="M108.84,312.5a40.923,40.923,0,0,0,.113,4.67c.014.175.212.341.384.22a.941.941,0,0,0,.294-.314.255.255,0,0,0-.44-.257.364.364,0,0,1-.111.131l.384.22a40.82,40.82,0,0,1-.113-4.67c.011-.328-.5-.328-.51,0Z" transform="translate(-91.377 -303.205)"/><path class="i" d="M111.163,310.314a30.814,30.814,0,0,0-.173,5.6.257.257,0,0,0,.475.129l.243-.412a.255.255,0,0,0-.441-.257l-.243.412.475.129a30.814,30.814,0,0,1,.173-5.6c.04-.325-.471-.322-.51,0Z" transform="translate(-92.565 -301.98)"/><path class="i" d="M113.571,310.815l-.091,4.988a.258.258,0,0,0,.436.18,2.138,2.138,0,0,0,.428-.727c.11-.31-.383-.444-.492-.136a1.486,1.486,0,0,1-.3.5l.436.18.091-4.988a.255.255,0,0,0-.51,0Z" transform="translate(-93.993 -302.259)"/><path class="i" d="M115.287,311.59q-.376,1.737-.621,3.5-.116.841-.2,1.685c-.021.207-.094.481.045.663a.344.344,0,0,0,.52.026c.246-.218-.115-.578-.361-.36l-.038.033.18-.075c.095.145.138.164.13.056.006-.065.013-.131.019-.2.01-.1.02-.2.03-.295q.036-.344.078-.687.088-.726.2-1.448.215-1.391.514-2.766c.069-.32-.423-.457-.492-.136Z" transform="translate(-94.523 -302.729)"/><path class="i" d="M117.09,313.466a38.171,38.171,0,0,0-1.431,4.812c-.072.32.419.456.492.136a38.174,38.174,0,0,1,1.431-4.812c.114-.308-.378-.441-.492-.136Z" transform="translate(-95.211 -303.787)"/><path class="i" d="M119.165,315.248a17.544,17.544,0,0,0-1.82,4.082.258.258,0,0,0,.374.288l.241-.151c.277-.174.022-.616-.257-.44l-.241.151.375.288a17.016,17.016,0,0,1,1.768-3.961c.171-.281-.27-.538-.44-.257Z" transform="translate(-96.155 -304.816)"/><path class="i" d="M120.967,316.265q-1.192,1.689-2.224,3.484a.255.255,0,0,0,.441.257q1.031-1.793,2.224-3.484c.19-.269-.252-.524-.44-.257Z" transform="translate(-96.925 -305.391)"/><path class="i" d="M121.2,318.757q-.929.773-1.814,1.6-.431.4-.852.816c-.253.249-.688.547-.5.948a.257.257,0,0,0,.349.091.261.261,0,0,0,.092-.349l-.017-.037.035.129-.012.01a.1.1,0,0,1,.028-.04.881.881,0,0,1,.077-.079l.188-.187q.188-.187.379-.371.391-.38.793-.749.792-.728,1.62-1.417c.252-.21-.11-.569-.361-.361Z" transform="translate(-96.52 -306.817)"/><path class="i" d="M121.033,322.076l-3.06,2.045c-.271.181-.016.623.258.44l3.06-2.045c.272-.181.016-.623-.258-.44Z" transform="translate(-96.448 -308.69)"/><path class="i" d="M121.6,324.1q-1.591.86-3.256,1.572a.257.257,0,0,0-.092.349.262.262,0,0,0,.349.091q1.664-.711,3.256-1.571c.289-.156.032-.6-.258-.441Z" transform="translate(-96.654 -309.829)"/><path class="i" d="M125.217,324.413q-2.823.915-5.551,2.089c-.3.129-.041.569.257.44q2.666-1.145,5.43-2.038c.311-.1.178-.594-.136-.492Z" transform="translate(-97.388 -310.017)"/><path class="i" d="M126.729,326.279l-2.739.9a.255.255,0,0,0,.136.492l.439-.089c.321-.065.185-.557-.136-.492l-.439.089.136.492,2.739-.9c.31-.1.177-.6-.136-.492Z" transform="translate(-99.787 -311.064)"/><path class="i" d="M127.985,327.952q-2.273.381-4.521.895c-.32.073-.184.565.136.492q2.248-.513,4.521-.9c.323-.054.186-.546-.136-.492Z" transform="translate(-99.491 -312.008)"/><path class="i" d="M130.988,329.982a41.269,41.269,0,0,1-5.931.059c-.328-.021-.327.49,0,.51a41.34,41.34,0,0,0,5.931-.059c.325-.027.328-.537,0-.511Z" transform="translate(-100.35 -313.148)"/><path class="i" d="M128.039,330.86q-2.338-.043-4.671-.219c-.328-.025-.326.486,0,.51q2.332.175,4.671.219a.255.255,0,0,0,0-.511Z" transform="translate(-99.402 -313.518)"/><path class="i" d="M125.44,331.7l-5.555-1.064c-.321-.061-.458.43-.136.492L125.3,332.2c.321.061.458-.43.136-.492Z" transform="translate(-97.406 -313.515)"/><path class="i" d="M125.826,331.947l-5.247-1.683c-.313-.1-.447.392-.136.492l5.247,1.683c.313.1.448-.392.136-.492Z" transform="translate(-97.8 -313.3)"/><path class="i" d="M125.6,333.609l-3.335-.965a.255.255,0,0,0-.136.492l3.335.965a.255.255,0,0,0,.136-.492Z" transform="translate(-98.741 -314.636)"/><path class="i" d="M128.613,332.753l-5.856-1.115c-.321-.061-.458.43-.136.492l5.856,1.116c.321.061.458-.431.136-.492Z" transform="translate(-99.018 -314.075)"/><path class="i" d="M126.191,334.7l-2.592-.532a.262.262,0,0,0-.314.178.258.258,0,0,0,.178.314l2.592.532a.261.261,0,0,0,.313-.178.258.258,0,0,0-.178-.314Z" transform="translate(-99.489 -315.496)"/><path class="i" d="M125.172,336.3a35.607,35.607,0,0,1-5.119-1.248c-.313-.1-.447.391-.136.492a35.6,35.6,0,0,0,5.119,1.248c.321.054.459-.438.136-.492Z" transform="translate(-97.505 -315.985)"/><path class="i" d="M125.7,337.8l-5.259-2.235c-.3-.127-.559.313-.257.44l5.259,2.235c.3.127.559-.313.257-.441Z" transform="translate(-97.68 -316.269)"/><path class="i" d="M121.706,336.5l-4.815-2.6c-.289-.156-.547.284-.258.44l4.815,2.6c.289.156.547-.284.257-.44Z" transform="translate(-95.691 -315.329)"/><path class="i" d="M122.678,339.12a24.676,24.676,0,0,1-5.871-4.041c-.241-.223-.6.137-.361.36a25.118,25.118,0,0,0,5.975,4.12c.293.145.552-.3.257-.44Z" transform="translate(-95.612 -315.969)"/><path class="i" d="M122.72,341.555l-1.84-1.78-.908-.879c-.244-.237-.542-.647-.931-.533a.255.255,0,0,0,.136.492c.055-.016.271.243.312.283l.393.38.835.807,1.644,1.591c.236.228.6-.132.361-.361Z" transform="translate(-97.012 -317.84)"/><path class="i" d="M121.575,344.153a24.641,24.641,0,0,0-2.911-3.332c-.238-.227-.6.133-.361.361a23.912,23.912,0,0,1,2.831,3.229.262.262,0,0,0,.349.092.257.257,0,0,0,.091-.349Z" transform="translate(-96.655 -319.189)"/><path class="i" d="M119.346,344.064l-2.445-3.391a.263.263,0,0,0-.349-.091.257.257,0,0,0-.091.349l2.445,3.39a.263.263,0,0,0,.349.092.257.257,0,0,0,.092-.349Z" transform="translate(-95.644 -319.076)"/><path class="i" d="M117.554,344.2a14.294,14.294,0,0,1-1.238-3.054.255.255,0,0,0-.492.136,14.912,14.912,0,0,0,1.29,3.176c.158.288.6.031.44-.258Z" transform="translate(-95.302 -319.31)"/><path class="i" d="M99.545,346.773a11.924,11.924,0,0,0,4.435-3.325c.208-.251-.151-.614-.36-.36a11.6,11.6,0,0,1-4.332,3.245c-.3.13-.041.57.258.441Z" transform="translate(-85.956 -320.452)"/><path class="i" d="M98.009,344.558a22.378,22.378,0,0,0,5.208-4.082c.225-.238-.135-.6-.361-.361a21.89,21.89,0,0,1-5.1,4,.255.255,0,0,0,.257.44Z" transform="translate(-85.1 -318.789)"/><path class="i" d="M97.35,344.488l3.18-2.236c.267-.187.012-.63-.257-.44l-3.18,2.235c-.267.187-.012.63.257.441Z" transform="translate(-84.737 -319.759)"/><path class="i" d="M92.7,344a15.779,15.779,0,0,0,5.044-3.116c.228-.236-.132-.6-.361-.361a15.439,15.439,0,0,1-4.941,3.036c-.3.135-.04.575.257.441Z" transform="translate(-82.12 -319.017)"/><path class="i" d="M92.194,341.583a64.91,64.91,0,0,0,6.745-2.816c.3-.143.037-.583-.257-.44a63.834,63.834,0,0,1-6.623,2.764c-.308.108-.175.6.136.492Z" transform="translate(-81.878 -317.815)"/><path class="i" d="M89.995,340.182l6.453-1.769a.255.255,0,0,0-.136-.492l-6.453,1.769a.255.255,0,0,0,.136.492Z" transform="translate(-80.641 -317.597)"/><path class="i" d="M89.933,340.623l3.56-.1a.255.255,0,0,0,0-.51l-3.56.1c-.328.009-.329.52,0,.51Z" transform="translate(-80.646 -318.774)"/><path class="i" d="M85.553,333.686q3.125,1.346,6.355,2.424c.312.1.446-.389.136-.492q-3.165-1.054-6.233-2.372c-.3-.129-.558.311-.258.44Z" transform="translate(-78.252 -314.967)"/><path class="i" d="M88.508,330.828a56.162,56.162,0,0,1,5.365,2.166c.3.138.555-.3.257-.44a57.344,57.344,0,0,0-5.486-2.217c-.311-.108-.445.385-.136.492Z" transform="translate(-79.886 -313.339)"/><path class="i" d="M89.092,338.739l5.921.219,2.935.108c.3.011.91.162,1.08-.187a.317.317,0,0,0-.462-.4.272.272,0,0,0-.117.288l0,.028c.058.323.549.186.492-.136l0-.028-.117.288-.2-.025-.075-.18q.149-.182-.046-.141l-.1,0-.3-.011-.607-.022-1.214-.045-2.378-.088-4.807-.177c-.328-.012-.328.5,0,.51Z" transform="translate(-80.174 -317.775)"/><path class="i" d="M89.5,328.508l4.548,2.461c.289.156.547-.284.258-.441l-4.549-2.461c-.288-.156-.547.284-.257.44Z" transform="translate(-80.469 -312.057)"/><g transform="translate(0.416)"><path class="g" d="M91.371,343.831a14.2,14.2,0,0,0-3.728,1.67c-.276.176-.021.617.258.44a13.727,13.727,0,0,1,3.605-1.618.255.255,0,0,0-.135-.492Z" transform="translate(-79.849 -320.912)"/><path class="g" d="M89.763,344.992q-1.4.7-2.78,1.429-.68.36-1.354.729-.348.19-.7.383l-.347.193c-.026.015-.276.174-.271.175l.187.246,0-.031-.187.246.033-.014-.288-.117.011.019a.255.255,0,0,0,.44-.258l-.011-.019a.257.257,0,0,0-.288-.117l-.033.014a.275.275,0,0,0-.187.246l0,.031a.257.257,0,0,0,.187.246c.229.072.428-.094.621-.2q.368-.206.738-.41.739-.407,1.483-.8,1.489-.794,3-1.545c.294-.146.036-.587-.258-.44Z" transform="translate(-77.867 -321.552)"/><path class="g" d="M90.523,346.19q-3.326,1.586-6.514,3.441a.258.258,0,0,0,.061.466l.2.067c.313.1.447-.39.136-.492l-.2-.067.061.466q3.185-1.853,6.514-3.441c.3-.141.037-.581-.258-.44Z" transform="translate(-77.808 -322.226)"/><path class="g" d="M88.846,347.472a79.242,79.242,0,0,0-7.808,4.386c-.232.148-.088.569.2.466l.559-.2c.307-.11.175-.6-.136-.492l-.559.2.2.466a79.184,79.184,0,0,1,7.808-4.386c.295-.144.036-.585-.258-.441Z" transform="translate(-76.146 -322.944)"/><path class="g" d="M90.681,348.064a70.559,70.559,0,0,1-7.2,4.507c-.288.157-.031.6.257.44a70.514,70.514,0,0,0,7.2-4.507c.265-.189.011-.632-.257-.441Z" transform="translate(-77.51 -323.266)"/><path class="g" d="M92.474,349.444q-3.222,2.192-6.349,4.523c-.15.112-.182.432.061.466a.948.948,0,0,0,.671-.125c.278-.173.022-.614-.258-.441a.385.385,0,0,1-.277.074l.061.466q3.125-2.33,6.349-4.523c.27-.184.015-.626-.258-.44Z" transform="translate(-78.999 -324.041)"/><path class="g" d="M94.851,350.06l-5.382,3.889a.256.256,0,0,0,.2.466l.191-.034c.323-.057.186-.549-.136-.492l-.191.034.2.466,5.383-3.888c.263-.191.009-.634-.258-.441Z" transform="translate(-80.873 -324.385)"/><path class="g" d="M97.087,350.1q-2.059,2.13-4.23,4.147c-.241.224.12.584.361.361q2.17-2.016,4.23-4.147c.228-.236-.132-.6-.361-.361Z" transform="translate(-82.796 -324.391)"/><path class="g" d="M99.287,349.942,95.161,354.7c-.182.21.049.559.309.4l.637-.387a.255.255,0,0,0-.258-.441l-.637.387.309.4,4.126-4.757c.214-.247-.145-.609-.361-.361Z" transform="translate(-84.097 -324.299)"/><path class="g" d="M101.965,352.041l-.978,2.121c-.158.343-.321.685-.475,1.03-.067.15-.1.333.049.448a.283.283,0,0,0,.421-.1.268.268,0,0,0-.04-.31l-.011-.012c-.22-.245-.58.117-.361.361l.011.012-.04-.309-.008.017.091-.091-.018.011.2-.026-.019,0,.152.117-.012-.027.035.129c0-.011.073-.135.089-.17l.081-.176.19-.412.353-.766.734-1.59a.263.263,0,0,0-.092-.349.257.257,0,0,0-.349.091Z" transform="translate(-87.102 -325.453)"/><path class="g" d="M105.084,350.659a14.633,14.633,0,0,0-1.127,2.514.255.255,0,0,0,.492.136,13.889,13.889,0,0,1,1.076-2.392.255.255,0,0,0-.441-.258Z" transform="translate(-89.061 -324.678)"/><path class="g" d="M87.543,342.518q-2.741,1.117-5.5,2.189c-.3.118-.171.612.136.492q2.759-1.072,5.5-2.19c.3-.122.169-.616-.136-.492Z" transform="translate(-76.678 -320.17)"/><path class="g" d="M83.285,341.376l-3.6,1.349-1.753.657-.9.337-.474.177-.19.071c.011,0-.264.082-.164.1l.178.178-.006-.015c-.124-.3-.618-.168-.492.136.117.284.34.194.572.108l.995-.373,1.989-.745,3.978-1.491c.3-.114.173-.608-.136-.492Z" transform="translate(-73.309 -319.531)"/><path class="g" d="M82.416,340.31l-6.978,1.819a.255.255,0,0,0,.136.492l6.978-1.819a.255.255,0,0,0-.136-.492Z" transform="translate(-72.968 -318.937)"/><path class="g" d="M81.464,338.732,74.418,339.9c-.323.054-.186.545.136.492l7.046-1.167c.323-.054.186-.545-.136-.492Z" transform="translate(-72.394 -318.055)"/><path class="g" d="M80,337.189l-6.736.963c-.324.046-.186.538.136.492l6.736-.963c.324-.047.186-.538-.136-.492Z" transform="translate(-71.746 -317.19)"/><path class="g" d="M77.255,335.033l-3.486.228-1.718.112-.859.056-.4.026-.252.017c-.053,0-.184-.023-.111.02l.126.22,0-.029-.075.18.02-.022-.249.065.024.005c.32.072.456-.42.136-.492l-.024,0a.257.257,0,0,0-.248.065.292.292,0,0,0,.072.475.742.742,0,0,0,.38.023l.5-.033,2.072-.136,4.092-.267c.326-.022.328-.532,0-.511Z" transform="translate(-70.043 -315.982)"/><path class="g" d="M80.094,332.944l-6.059-.256c-.282-.012-.354.451-.068.5a1.344,1.344,0,0,0,.709-.049c.306-.111.174-.6-.136-.492a.822.822,0,0,1-.438.049l-.068.5,6.059.256c.328.014.328-.5,0-.51Z" transform="translate(-72.142 -314.636)"/><path class="g" d="M82.437,330.875a30.039,30.039,0,0,0-4.215-.767c-.326-.036-.323.475,0,.51a29.089,29.089,0,0,1,4.08.749.255.255,0,0,0,.136-.492Z" transform="translate(-74.495 -313.219)"/><path class="g" d="M83.94,328.766l-2.3-.816a.257.257,0,0,0-.313.178.26.26,0,0,0,.178.314l2.3.816a.255.255,0,0,0,.136-.492Z" transform="translate(-76.369 -312.003)"/><path class="g" d="M86.682,326.969l-3.267-1.4a.263.263,0,0,0-.349.091.257.257,0,0,0,.091.349l3.267,1.4a.264.264,0,0,0,.349-.091.256.256,0,0,0-.091-.349Z" transform="translate(-77.33 -310.658)"/><path class="g" d="M88.885,325.674l-1.94-1.089a.255.255,0,0,0-.258.441l1.94,1.089a.255.255,0,0,0,.258-.44Z" transform="translate(-79.31 -310.102)"/><path class="g" d="M88.028,323.705l-2.47-1.594c-.277-.179-.533.263-.258.44l2.471,1.594c.277.179.533-.263.258-.44Z" transform="translate(-78.535 -308.711)"/><path class="g" d="M93.435,320.1a32.275,32.275,0,0,1-2.992-3.172c-.209-.254-.568.109-.361.361a32.235,32.235,0,0,0,2.993,3.172c.241.223.6-.137.36-.361Z" transform="translate(-81.249 -305.78)"/><path class="g" d="M92.316,316.1l-2.733-3.344a.257.257,0,0,0-.361,0,.26.26,0,0,0,0,.36l2.733,3.344a.257.257,0,0,0,.36,0,.26.26,0,0,0,0-.36Z" transform="translate(-80.761 -303.446)"/><path class="g" d="M88.621,309.066l1.956,2.758c.312.44.6.916.946,1.33a.359.359,0,0,0,.542.078.316.316,0,0,0-.058-.493c-.265-.195-.519.248-.257.441l.024.018-.117-.152q.394-.091.22-.266l-.1-.135-.191-.269-.334-.471-.739-1.043-1.455-2.052c-.189-.266-.631-.011-.441.258Z" transform="translate(-80.439 -301.209)"/><path class="g" d="M90.978,307.72l1.6,2.223.781,1.083c.11.153.209.307.411.332a.3.3,0,0,0,.357-.3.255.255,0,0,0-.511,0v.028l.075-.18c.14.027.2.01.168-.051l-.08-.111-.16-.223-.321-.444-.621-.861-1.262-1.75c-.19-.264-.633-.01-.44.257Z" transform="translate(-81.76 -300.454)"/><path class="g" d="M90.741,303.548l3.6,4.84c.194.26.637.006.441-.258l-3.6-4.84c-.194-.26-.637-.006-.441.258Z" transform="translate(-81.626 -298.115)"/><path class="g" d="M92.31,300.8q1.887,3.109,3.674,6.277a.255.255,0,0,0,.441-.257q-1.786-3.168-3.674-6.278a.255.255,0,0,0-.441.258Z" transform="translate(-82.512 -296.568)"/><path class="g" d="M93.676,299.007c.16.043.259.239.348.367s.191.285.28.432c.178.292.339.595.489.9a19.85,19.85,0,0,1,.776,1.892c.232.639.451,1.283.691,1.919a2.629,2.629,0,0,0,.377.861.353.353,0,0,0,.6-.146c.109-.31-.384-.444-.492-.136l-.018.05.117-.152.018-.015.18.075c-.1-.078-.137-.274-.183-.389q-.086-.221-.169-.445c-.111-.3-.218-.6-.324-.9-.212-.6-.423-1.2-.659-1.788a14.448,14.448,0,0,0-.791-1.692c-.147-.262-.306-.517-.477-.763a1.2,1.2,0,0,0-.628-.566.255.255,0,0,0-.136.492Z" transform="translate(-83.199 -295.492)"/><path class="g" d="M95.561,297.059a21.476,21.476,0,0,1,2.189,7.368c.035.323.546.326.51,0A22.168,22.168,0,0,0,96,296.8c-.148-.293-.589-.035-.44.258Z" transform="translate(-84.34 -294.464)"/><path class="g" d="M98.587,293.173a84.968,84.968,0,0,1,2.016,8.28c.061.322.553.186.492-.136a85.1,85.1,0,0,0-2.016-8.28.255.255,0,0,0-.492.136Z" transform="translate(-86.048 -292.325)"/><path class="g" d="M101.353,293.476q.734,4.641,1.581,9.263c.059.322.551.186.492-.136q-.848-4.622-1.581-9.263c-.051-.324-.543-.186-.492.136Z" transform="translate(-87.605 -292.491)"/><path class="g" d="M103.3,292.308q.639,3.792.912,7.633c.023.326.533.328.51,0q-.279-3.9-.931-7.768c-.054-.323-.546-.186-.492.136Z" transform="translate(-88.698 -291.836)"/><path class="g" d="M104.957,293.416l.493,8.069a.258.258,0,0,0,.436.18l.259-.286c.22-.243-.14-.6-.361-.361l-.259.286.436.18-.493-8.069c-.02-.326-.53-.329-.51,0Z" transform="translate(-89.628 -292.499)"/><path class="g" d="M107.384,294.409a27.377,27.377,0,0,0,.109,3.615l.252,3.65c.022.326.533.328.51,0l-.251-3.65a27.227,27.227,0,0,1-.109-3.615c.021-.328-.49-.327-.511,0Z" transform="translate(-90.975 -293.057)"/><path class="g" d="M109.074,294.582a41.076,41.076,0,0,1,.109,7.7c-.017.212.225.292.384.22a.887.887,0,0,0,.4-.369.255.255,0,0,0-.44-.258.43.43,0,0,1-.22.187l.384.22a41.075,41.075,0,0,0-.109-7.7c-.035-.323-.545-.327-.51,0Z" transform="translate(-91.937 -293.155)"/><path class="g" d="M111.057,300.668q-.043,1.593-.015,3.187c.009.514.007,1.033.045,1.545a.441.441,0,0,0,.246.425.341.341,0,0,0,.424-.152.255.255,0,0,0-.44-.258l-.021.036.153-.117q.2.167.145-.03l0-.1-.012-.338q-.009-.29-.017-.58-.014-.6-.019-1.207-.009-1.208.025-2.415a.255.255,0,0,0-.51,0Z" transform="translate(-93.035 -296.567)"/><path class="g" d="M112.182,291.887a24.478,24.478,0,0,1-.208,4.782c-.091.789-.187,1.577-.257,2.369a7.168,7.168,0,0,0-.072,1.121.483.483,0,0,0,.432.5c.324.042.321-.468,0-.511.159.021.04.03.076-.075a1.031,1.031,0,0,0,.014-.247q.016-.272.039-.544c.028-.346.062-.691.1-1.037.075-.708.163-1.414.241-2.121a22.336,22.336,0,0,0,.147-4.24c-.026-.325-.537-.328-.51,0Z" transform="translate(-93.377 -291.642)"/><path class="g" d="M113.944,292.22a55.607,55.607,0,0,1-.386,7.931c-.04.325.471.323.51,0a55.672,55.672,0,0,0,.386-7.931.255.255,0,0,0-.511,0Z" transform="translate(-94.452 -291.828)"/><path class="g" d="M116.257,292.751a4.284,4.284,0,0,0-.31,1.682q-.057,1-.095,2-.075,2-.069,4.009a.255.255,0,0,0,.51,0q0-1.9.061-3.808.033-.927.083-1.853a4.618,4.618,0,0,1,.26-1.774c.144-.294-.3-.553-.44-.258Z" transform="translate(-95.701 -292.191)"/><path class="g" d="M118.3,294.166a59.017,59.017,0,0,0-.524,6.89.255.255,0,0,0,.51,0,57.936,57.936,0,0,1,.505-6.755c.043-.321-.448-.46-.492-.136Z" transform="translate(-96.82 -292.954)"/><path class="g" d="M119.814,295.254a36.987,36.987,0,0,1-1.246,6.619.255.255,0,0,0,.492.136,37.738,37.738,0,0,0,1.265-6.754c.031-.327-.479-.325-.51,0Z" transform="translate(-97.257 -293.531)"/><path class="g" d="M120.318,302.754a16.4,16.4,0,0,0,2.043-6.988.255.255,0,0,0-.51,0,11.3,11.3,0,0,1-.634,3.472,24.661,24.661,0,0,1-1.339,3.259c-.145.294.3.552.44.258Z" transform="translate(-97.982 -293.817)"/><path class="g" d="M120.488,305.058a30.964,30.964,0,0,0,3.21-6c.122-.3-.371-.437-.492-.136a30.365,30.365,0,0,1-3.159,5.875c-.186.271.256.526.441.257Z" transform="translate(-98.068 -295.633)"/><path class="g" d="M121.543,306.331a37.772,37.772,0,0,0,3.3-5.734c.137-.3-.3-.555-.441-.257a37.706,37.706,0,0,1-3.3,5.734c-.188.27.254.525.441.258Z" transform="translate(-98.66 -296.447)"/><path class="g" d="M121.922,308.471a13.7,13.7,0,0,0,3.8-5.02c.131-.3-.308-.558-.441-.257a13.367,13.367,0,0,1-3.725,4.917c-.253.209.109.568.361.36Z" transform="translate(-98.894 -298.047)"/><path class="g" d="M124.06,309.035a24.577,24.577,0,0,0,4.622-4.287c.209-.251-.151-.613-.361-.36a24.112,24.112,0,0,1-4.518,4.207c-.265.189-.011.632.257.44Z" transform="translate(-100.137 -298.743)"/><path class="g" d="M124.574,312.841a29.379,29.379,0,0,0,4.1-2.478c.264-.19.01-.633-.258-.44a29.332,29.332,0,0,1-4.1,2.478c-.294.146-.036.587.258.441Z" transform="translate(-100.416 -301.87)"/><path class="g" d="M126.21,316.922a35.364,35.364,0,0,0,3.424-1.287.257.257,0,0,0,.092-.349.262.262,0,0,0-.349-.091,34.13,34.13,0,0,1-3.3,1.235c-.312.1-.179.591.136.492Z" transform="translate(-101.375 -304.838)"/><path class="g" d="M137.95,317.7c-.023.018-.025.019,0,0l-.038.029-.076.056c-.051.036-.1.072-.155.107q-.153.1-.312.19t-.326.165l-.086.039-.043.019,0,0c-.058.023-.117.047-.176.068a.255.255,0,0,0,.136.492,5.315,5.315,0,0,0,1.446-.809.255.255,0,0,0,0-.36.262.262,0,0,0-.36,0Z" transform="translate(-107.345 -306.217)"/><path class="g" d="M136.5,319.047a41.449,41.449,0,0,0-4.183,1.516.257.257,0,0,0-.092.349.262.262,0,0,0,.349.091,40.244,40.244,0,0,1,4.061-1.465.255.255,0,0,0-.136-.492Z" transform="translate(-104.909 -307.008)"/><path class="g" d="M138.272,321l-3.56,1.107c-.313.1-.179.59.136.492l3.56-1.107c.313-.1.179-.59-.136-.492Z" transform="translate(-106.22 -308.102)"/><path class="g" d="M120.165,347.832q.677,1.683,1.474,3.313a.258.258,0,0,0,.4.051.56.56,0,0,0,.18-.461.262.262,0,0,0-.255-.255.257.257,0,0,0-.255.255c.005.054.007.065-.03.1l.4.052q-.769-1.569-1.423-3.191a.263.263,0,0,0-.314-.178.257.257,0,0,0-.178.314Z" transform="translate(-98.152 -322.981)"/><path class="g" d="M121.731,348.646a8.322,8.322,0,0,1,.985,1.516,7.9,7.9,0,0,1,.351.8,1.328,1.328,0,0,0,.437.724c.273.185.528-.257.257-.44a.491.491,0,0,1-.142-.252c-.05-.137-.1-.274-.156-.41-.114-.278-.239-.551-.38-.816a8.949,8.949,0,0,0-.993-1.48.257.257,0,0,0-.361,0,.261.261,0,0,0,0,.361Z" transform="translate(-98.997 -323.375)"/><path class="g" d="M123.608,348.12a10.774,10.774,0,0,1,1.9,2.83.258.258,0,0,0,.349.092.261.261,0,0,0,.092-.349,11.206,11.206,0,0,0-1.981-2.934c-.225-.241-.585.121-.361.361Z" transform="translate(-100.051 -323.077)"/><path class="g" d="M126.161,347.43l1.791,2.128.871,1.034.448.532a.514.514,0,0,0,.517.245.258.258,0,0,0,.178-.314.261.261,0,0,0-.314-.178c.111-.017-.055-.155-.095-.2l-.2-.237-.4-.473-.821-.975-1.617-1.921c-.212-.252-.571.111-.36.361Z" transform="translate(-101.487 -322.687)"/><path class="g" d="M129.382,348.09a41.18,41.18,0,0,0,3.282,3.321c.243.22.605-.141.361-.361a41.1,41.1,0,0,1-3.282-3.321c-.218-.247-.577.115-.361.361Z" transform="translate(-103.292 -323.058)"/><path class="g" d="M130.086,345.964q2.262,1.54,4.446,3.19c.262.2.516-.245.257-.44q-2.183-1.65-4.445-3.191c-.272-.185-.528.257-.258.441Z" transform="translate(-103.66 -321.842)"/><path class="g" d="M131.983,346.393l4.7,2.6c.288.159.545-.281.257-.44l-4.7-2.6c-.288-.159-.545.281-.258.44Z" transform="translate(-104.718 -322.089)"/><path class="g" d="M132.63,345.416a40.628,40.628,0,0,1,4.423,2.272.255.255,0,0,0,.258-.44,40.667,40.667,0,0,0-4.423-2.272c-.3-.131-.558.309-.258.44Z" transform="translate(-105.077 -321.546)"/><path class="g" d="M131.323,344.515a25.137,25.137,0,0,1,6.883,2.6c.287.16.544-.281.257-.441a25.619,25.619,0,0,0-7-2.651c-.32-.07-.457.422-.136.492Z" transform="translate(-104.316 -321.021)"/><path class="g" d="M137.244,344.972a29.531,29.531,0,0,1,4.524,1.478c.3.126.434-.367.136-.492a29.52,29.52,0,0,0-4.524-1.478c-.319-.076-.455.416-.136.492Z" transform="translate(-107.638 -321.277)"/><path class="g" d="M133.182,342.477a34.921,34.921,0,0,1,7.21,2.324c.3.133.557-.306.257-.44a35.5,35.5,0,0,0-7.332-2.376c-.32-.066-.457.425-.136.492Z" transform="translate(-105.359 -319.879)"/><path class="g" d="M134.88,341.08a34.048,34.048,0,0,1,4.886,1.355c.31.111.443-.382.136-.492a34.11,34.11,0,0,0-4.886-1.355c-.32-.064-.458.428-.136.492Z" transform="translate(-106.311 -319.095)"/><path class="g" d="M135.71,338.618a30.37,30.37,0,0,1,4.456,1.376c.306.121.438-.372.136-.492a30.312,30.312,0,0,0-4.456-1.376c-.32-.072-.456.419-.135.492Z" transform="translate(-106.777 -317.713)"/><path class="g" d="M132.851,336.707q2.894.623,5.717,1.528c.313.1.448-.392.136-.492q-2.819-.9-5.717-1.527c-.32-.069-.457.423-.136.492Z" transform="translate(-105.173 -316.642)"/><path class="g" d="M138.656,336.54a15.688,15.688,0,0,1,2.824.653c.313.1.447-.39.136-.492a16.389,16.389,0,0,0-2.96-.671.256.256,0,0,0-.255.255.261.261,0,0,0,.255.255Z" transform="translate(-108.389 -316.541)"/><path class="g" d="M137.488,334.53a28.7,28.7,0,0,1,4.609,1,.255.255,0,0,0,.136-.492,29.489,29.489,0,0,0-4.745-1.018c-.325-.043-.322.468,0,.51Z" transform="translate(-107.741 -315.413)"/><path class="g" d="M139.1,333.147l6.156,1.169c.321.061.458-.431.136-.492l-6.156-1.169c-.321-.061-.458.431-.136.492Z" transform="translate(-108.678 -314.645)"/><path class="g" d="M138.838,332.761l5.706.15a.255.255,0,0,0,0-.51l-5.706-.15a.255.255,0,0,0,0,.51Z" transform="translate(-108.496 -314.422)"/><path class="g" d="M141.2,331.247q2.113.049,4.227-.029c.328-.012.329-.522,0-.51q-2.112.078-4.227.029a.255.255,0,0,0,0,.51Z" transform="translate(-109.822 -313.556)"/><path class="g" d="M137.658,329.418q2.59.195,5.189.174a.255.255,0,0,0,0-.51q-2.6.02-5.189-.174c-.328-.025-.326.486,0,.51Z" transform="translate(-107.835 -312.546)"/><path class="g" d="M138.668,328.347q2.113.059,4.226-.055c.327-.018.329-.528,0-.51q-2.111.114-4.226.055a.255.255,0,0,0,0,.51Z" transform="translate(-108.401 -311.914)"/><path class="g" d="M137.148,325.788a34.387,34.387,0,0,0,5.778-.364c.324-.048.186-.539-.135-.492a33.564,33.564,0,0,1-5.643.346.255.255,0,0,0,0,.51Z" transform="translate(-107.548 -310.314)"/><path class="g" d="M140.861,324.181a22.548,22.548,0,0,0,2.668-.253.257.257,0,0,0,.178-.314.261.261,0,0,0-.313-.178,21.363,21.363,0,0,1-2.532.234c-.328.011-.329.521,0,.51Z" transform="translate(-109.631 -309.475)"/><path class="h" d="M92.664,325.7a15.605,15.605,0,0,1,3.492,1.985.257.257,0,0,0,.349-.091.261.261,0,0,0-.091-.349A16.1,16.1,0,0,0,92.8,325.21a.257.257,0,0,0-.313.178.261.261,0,0,0,.178.314Z" transform="translate(-82.627 -310.465)"/><path class="h" d="M89.693,325.931q2.537,1.372,5.146,2.608c.3.14.555-.3.258-.44q-2.608-1.236-5.146-2.609c-.289-.156-.547.285-.257.441Z" transform="translate(-80.995 -310.611)"/><path class="h" d="M89.1,328.487l5.137,1.4a.255.255,0,0,0,.135-.492l-5.136-1.405a.255.255,0,0,0-.136.492Z" transform="translate(-80.635 -312.029)"/><path class="h" d="M87.5,330.5q2.662.334,5.341.483c.328.018.327-.492,0-.51q-2.678-.15-5.341-.483c-.325-.041-.322.47,0,.51Z" transform="translate(-79.701 -313.153)"/><path class="h" d="M89.7,332.815a45.98,45.98,0,0,0,5.412,0c.326-.019.328-.529,0-.51a45.967,45.967,0,0,1-5.412,0c-.328-.019-.327.491,0,.51Z" transform="translate(-80.933 -314.452)"/><path class="h" d="M87.842,334a41.729,41.729,0,0,0,7.562-.771c.322-.063.186-.555-.136-.492a40.946,40.946,0,0,1-7.426.753.255.255,0,0,0,0,.51Z" transform="translate(-79.889 -314.691)"/><path class="h" d="M90.715,335.489a36.661,36.661,0,0,0,4.968-.941.255.255,0,0,0-.136-.492,35.585,35.585,0,0,1-4.832.923c-.322.039-.326.549,0,.51Z" transform="translate(-81.503 -315.429)"/><path class="h" d="M91.287,336.906q2.6-.406,5.182-.933c.321-.065.186-.558-.136-.492q-2.579.528-5.182.933c-.323.05-.186.542.136.492Z" transform="translate(-81.78 -316.231)"/><path class="h" d="M98.725,337.649l2.965-.742a.255.255,0,0,0-.136-.492l-2.965.742a.255.255,0,0,0,.136.492Z" transform="translate(-85.954 -316.753)"/><path class="h" d="M93.473,340.194q2.281-.6,4.521-1.336c.31-.1.177-.6-.136-.492q-2.24.738-4.521,1.336a.255.255,0,0,0,.136.492Z" transform="translate(-83.009 -317.844)"/><path class="h" d="M101.917,338.823l2.743-1.112a.264.264,0,0,0,.178-.314.257.257,0,0,0-.314-.178l-2.743,1.112a.264.264,0,0,0-.178.314.258.258,0,0,0,.314.178Z" transform="translate(-87.742 -317.201)"/><path class="h" d="M98.89,340.528a26.81,26.81,0,0,0,4.38-1.919c.288-.158.031-.6-.258-.441a26.007,26.007,0,0,1-4.258,1.868c-.31.1-.177.6.136.492Z" transform="translate(-86.05 -317.722)"/><path class="h" d="M104.434,339.606a14.556,14.556,0,0,0-3.6,2.229.258.258,0,0,0,.112.427.565.565,0,0,0,.606-.177.264.264,0,0,0,0-.361.256.256,0,0,0-.36,0c-.042.052-.053.063-.11.046l.113.426a14.13,14.13,0,0,1,3.5-2.149.257.257,0,0,0,.092-.349.261.261,0,0,0-.349-.091Z" transform="translate(-87.27 -318.531)"/><path class="h" d="M105.866,339.784q-1.759,1.341-3.64,2.51c-.278.173-.022.615.258.441q1.878-1.168,3.64-2.511a.264.264,0,0,0,.091-.349.257.257,0,0,0-.349-.091Z" transform="translate(-88.029 -318.626)"/><path class="h" d="M107.287,340.682l-2.2,1.933a9.552,9.552,0,0,0-1.771,1.857.257.257,0,0,0,.288.374l.521-.173c.31-.1.177-.6-.136-.492l-.521.173.288.374a9.383,9.383,0,0,1,1.75-1.8l2.139-1.882c.247-.217-.115-.577-.361-.361Z" transform="translate(-88.689 -319.114)"/><path class="h" d="M110.269,342.008q-1.071,1.322-2.018,2.736c-.183.274.259.529.44.257q.909-1.359,1.939-2.632a.263.263,0,0,0,0-.361.257.257,0,0,0-.361,0Z" transform="translate(-91.451 -319.854)"/><path class="h" d="M113.233,337.707a6.086,6.086,0,0,1,1.916,2.552.262.262,0,0,0,.314.178.257.257,0,0,0,.178-.313,6.568,6.568,0,0,0-2.048-2.777.264.264,0,0,0-.361,0,.257.257,0,0,0,0,.361Z" transform="translate(-94.229 -317.24)"/><path class="h" d="M114.586,336.293a10.276,10.276,0,0,1,3.082,3.555c.153.291.594.033.44-.257a10.831,10.831,0,0,0-3.265-3.738c-.267-.192-.522.25-.258.441Z" transform="translate(-94.967 -316.416)"/><path class="h" d="M118.035,336.47q1.5,1.43,3.118,2.737a.263.263,0,0,0,.361,0,.257.257,0,0,0,0-.361q-1.613-1.306-3.119-2.737c-.238-.226-.6.134-.36.361Z" transform="translate(-96.921 -316.546)"/><path class="h" d="M118.771,336.171l4.1,2.564c.279.175.536-.266.258-.44l-4.1-2.564c-.279-.175-.536.267-.258.44Z" transform="translate(-97.31 -316.351)"/><path class="h" d="M117.141,334.882l4.248,1.339c.314.1.448-.393.136-.492l-4.248-1.339c-.314-.1-.448.394-.136.492Z" transform="translate(-96.363 -315.614)"/><path class="h" d="M115.7,332.347q2.57.251,5.126.625c.321.047.46-.444.136-.492q-2.623-.385-5.262-.643c-.327-.032-.324.479,0,.51Z" transform="translate(-95.519 -314.189)"/><path class="h" d="M121.711,334.167a10.38,10.38,0,0,1,2.317,1,.255.255,0,0,0,.258-.44,10.974,10.974,0,0,0-2.439-1.052.255.255,0,0,0-.136.492Z" transform="translate(-98.926 -315.214)"/><path class="h" d="M120.6,331.159a53.062,53.062,0,0,0,5.334-.282c.323-.033.327-.544,0-.51a53.053,53.053,0,0,1-5.334.282.255.255,0,0,0,0,.51Z" transform="translate(-98.265 -313.364)"/><path class="h" d="M121.987,328.4a44.134,44.134,0,0,0,6.857-2.03c.3-.117.171-.611-.136-.492a44.094,44.094,0,0,1-6.857,2.03c-.321.068-.185.559.136.492Z" transform="translate(-99.003 -310.834)"/><path class="h" d="M126.816,325.068a18.975,18.975,0,0,0-4,1.862c-.279.172-.023.613.257.44a18.415,18.415,0,0,1,3.877-1.81c.31-.1.177-.6-.136-.492Z" transform="translate(-99.579 -310.384)"/><path class="h" d="M118.631,322.545l-2.592,2.709-1.282,1.339c-.156.163-.333.424-.087.6a.293.293,0,0,0,.463-.237.255.255,0,0,0-.51,0v.024l.126-.22.076-.022.18.075-.021-.019.075.18c0,.034.089-.054.089-.054.041-.037.078-.082.116-.122l.262-.274.5-.517.99-1.035,1.981-2.07c.227-.237-.133-.6-.361-.361Z" transform="translate(-95.009 -308.934)"/><path class="h" d="M117.6,321.4a31.225,31.225,0,0,1-3.241,3.432c-.243.221.119.581.361.36a31.184,31.184,0,0,0,3.241-3.432.263.263,0,0,0,0-.361.256.256,0,0,0-.36,0Z" transform="translate(-94.856 -308.293)"/><path class="h" d="M117.567,317.587q-1.543,2.52-2.863,5.166c-.146.293.294.551.44.257q1.32-2.643,2.863-5.166c.172-.281-.269-.538-.44-.258Z" transform="translate(-95.079 -306.128)"/><path class="h" d="M117.087,314.576a53.393,53.393,0,0,0-1.934,6.546c-.073.32.419.456.492.136a53.473,53.473,0,0,1,1.935-6.546c.113-.309-.38-.442-.492-.136Z" transform="translate(-95.343 -304.409)"/><path class="h" d="M98.327,316.84a12.841,12.841,0,0,1,2.282,4.127c.1.31.6.177.492-.136a13.515,13.515,0,0,0-2.413-4.352c-.209-.253-.569.109-.361.361Z" transform="translate(-85.874 -305.526)"/><path class="h" d="M102.311,317.663l2.007,3.45a.255.255,0,0,0,.441-.257l-2.008-3.45a.255.255,0,0,0-.44.258Z" transform="translate(-88.123 -306.025)"/><path class="h" d="M102.868,312.735a20.263,20.263,0,0,1,2.4,5.088.257.257,0,0,0,.374.152l.218-.146c.271-.182.016-.624-.258-.441l-.217.146.375.152a20.747,20.747,0,0,0-2.45-5.21c-.179-.274-.621-.018-.441.257Z" transform="translate(-88.432 -303.264)"/><path class="h" d="M106.992,313.73l.583,2.626c.1.431.18.865.287,1.293a.453.453,0,0,0,.274.355.292.292,0,0,0,.383-.2c.119-.306-.374-.439-.492-.136l-.011.028.178-.178c.144.048.192.02.142-.083l-.026-.118-.052-.235-.113-.51-.217-.98-.443-2c-.071-.32-.563-.185-.492.136Z" transform="translate(-90.766 -303.854)"/><path class="h" d="M108.513,311.534q.529,2.807.954,5.632c.027.18.243.211.375.153l.166-.074c.3-.133.04-.573-.258-.441l-.166.074.375.152q-.425-2.825-.954-5.632c-.061-.322-.552-.186-.492.136Z" transform="translate(-91.62 -302.621)"/><path class="h" d="M111.878,312.652q.019,1.779.1,3.558.041.876.1,1.752a.637.637,0,0,0,.19.53.3.3,0,0,0,.459-.086c.158-.288-.283-.546-.441-.257l-.017.031.22-.126c.106.044.139.014.1-.091,0-.067-.009-.133-.013-.2q-.01-.15-.019-.3-.021-.35-.04-.7-.036-.676-.062-1.352-.053-1.378-.068-2.756a.255.255,0,0,0-.51,0Z" transform="translate(-93.511 -303.29)"/><path class="h" d="M113.074,312.739a19.393,19.393,0,0,0-.643,5.189.255.255,0,0,0,.51,0,18.865,18.865,0,0,1,.625-5.053.255.255,0,0,0-.492-.136Z" transform="translate(-93.82 -303.375)"/><path class="h" d="M115.191,311.729a51.759,51.759,0,0,0-1.112,6.371c-.036.326.474.324.51,0a50.618,50.618,0,0,1,1.094-6.236c.076-.319-.415-.455-.492-.135Z" transform="translate(-94.744 -302.808)"/><path class="i" d="M95.621,316.569a39.362,39.362,0,0,1,1.757,5.96c.068.321.559.185.492-.136a39.311,39.311,0,0,0-1.757-5.96c-.116-.3-.61-.172-.492.136Z" transform="translate(-84.381 -305.453)"/><path class="i" d="M98.228,314.407a30.191,30.191,0,0,1,1.091,4.452c.054.323.545.186.492-.136a30.138,30.138,0,0,0-1.091-4.452c-.1-.311-.594-.178-.492.136Z" transform="translate(-85.846 -304.237)"/><path class="i" d="M100.574,312.039q.182,1.3.436,2.586.126.631.269,1.26c.065.281.083.883.441.949a.262.262,0,0,0,.288-.117l.014-.027c.148-.292-.292-.551-.44-.257l-.014.027.288-.117c.114.021.025-.122.006-.2q-.036-.151-.071-.3c-.04-.173-.079-.347-.116-.52q-.123-.564-.232-1.132-.217-1.135-.376-2.28c-.045-.324-.537-.186-.492.136Z" transform="translate(-87.168 -302.904)"/><path class="i" d="M103.322,308.6q.077,2.006.262,4.005.091.975.208,1.946c.025.208.043.487.3.53a.308.308,0,0,0,.349-.393.255.255,0,0,0-.492.136l.01.038.066-.249-.033.034.18-.075-.047,0,.18.075c.019.06.019.043,0-.05l-.024-.2q-.024-.2-.046-.4-.045-.4-.085-.8-.076-.749-.137-1.5-.124-1.551-.184-3.106c-.012-.327-.523-.329-.51,0Z" transform="translate(-88.711 -301.016)"/><path class="i" d="M105.139,310.963q.042,2.6.249,5.193c.026.325.537.328.51,0q-.206-2.592-.248-5.193a.255.255,0,0,0-.51,0Z" transform="translate(-89.73 -302.342)"/><path class="i" d="M107.559,311.805a21.974,21.974,0,0,0,.22,4.823.261.261,0,0,0,.314.178.363.363,0,0,0,.239-.536c-.133-.3-.572-.04-.441.257l.066-.214.314.178a21.362,21.362,0,0,1-.2-4.687c.022-.328-.489-.327-.51,0Z" transform="translate(-91.062 -302.815)"/><path class="i" d="M109.788,311.469a40.717,40.717,0,0,0,.113,4.669c.014.175.212.341.384.22a.942.942,0,0,0,.294-.314.255.255,0,0,0-.441-.257.358.358,0,0,1-.111.131l.384.22a40.716,40.716,0,0,1-.113-4.669c.011-.328-.5-.328-.51,0Z" transform="translate(-92.326 -302.626)"/><path class="i" d="M112.112,309.28a30.854,30.854,0,0,0-.173,5.6.257.257,0,0,0,.475.129l.243-.412a.255.255,0,0,0-.44-.257l-.243.412.475.129a30.813,30.813,0,0,1,.173-5.6c.04-.325-.471-.322-.51,0Z" transform="translate(-93.514 -301.4)"/><path class="i" d="M114.52,309.782l-.091,4.988a.257.257,0,0,0,.435.18,2.146,2.146,0,0,0,.429-.728c.11-.31-.383-.443-.492-.136a1.494,1.494,0,0,1-.3.5l.436.18.091-4.988a.255.255,0,0,0-.51,0Z" transform="translate(-94.942 -301.68)"/><path class="i" d="M116.236,310.557q-.377,1.737-.621,3.5-.117.841-.2,1.685c-.021.207-.094.481.045.663a.345.345,0,0,0,.52.026c.246-.218-.115-.578-.361-.361l-.038.034.18-.075q.142.218.13.056c.006-.065.012-.131.019-.2q.014-.147.03-.295.036-.344.077-.687.088-.726.2-1.448.215-1.391.514-2.766c.069-.32-.422-.457-.492-.135Z" transform="translate(-95.471 -302.149)"/><path class="i" d="M118.038,312.432a38.149,38.149,0,0,0-1.431,4.812c-.073.32.419.456.492.135a38.192,38.192,0,0,1,1.431-4.812c.114-.308-.379-.441-.492-.135Z" transform="translate(-96.16 -303.207)"/><path class="i" d="M120.113,314.214a17.558,17.558,0,0,0-1.82,4.083.258.258,0,0,0,.375.288l.241-.151c.277-.174.022-.616-.258-.441l-.241.151.375.288a16.987,16.987,0,0,1,1.768-3.961c.171-.281-.27-.538-.441-.258Z" transform="translate(-97.104 -304.236)"/><path class="i" d="M121.916,315.231q-1.193,1.69-2.224,3.484a.255.255,0,0,0,.44.258q1.031-1.793,2.224-3.485c.19-.269-.252-.524-.44-.257Z" transform="translate(-97.874 -304.811)"/><path class="i" d="M122.149,317.723q-.929.773-1.815,1.6-.431.4-.851.816c-.253.249-.688.548-.5.948a.257.257,0,0,0,.349.092.261.261,0,0,0,.091-.349l-.017-.037.035.129-.012.01a.1.1,0,0,1,.028-.04.952.952,0,0,1,.078-.079l.187-.188c.126-.124.252-.248.379-.371q.392-.379.793-.749.792-.728,1.619-1.417c.253-.21-.11-.569-.36-.361Z" transform="translate(-97.469 -306.237)"/><path class="i" d="M121.982,321.042l-3.06,2.045c-.272.182-.017.624.258.441l3.06-2.045c.271-.182.016-.624-.258-.441Z" transform="translate(-97.397 -308.11)"/><path class="i" d="M122.553,323.064q-1.591.859-3.256,1.571a.257.257,0,0,0-.092.349.262.262,0,0,0,.349.092q1.663-.711,3.256-1.572c.289-.156.032-.6-.258-.44Z" transform="translate(-97.603 -309.25)"/><path class="i" d="M126.166,323.379q-2.823.915-5.552,2.089c-.3.13-.041.569.258.441q2.666-1.145,5.43-2.038c.311-.1.178-.594-.136-.492Z" transform="translate(-98.336 -309.438)"/><path class="i" d="M127.678,325.245l-2.739.9a.255.255,0,0,0,.136.492l.439-.089c.321-.065.185-.557-.136-.492l-.439.089.136.492,2.738-.9c.311-.1.178-.595-.135-.492Z" transform="translate(-100.736 -310.484)"/><path class="i" d="M128.934,326.918q-2.273.382-4.521.9c-.32.073-.184.565.136.492q2.247-.513,4.521-.895c.323-.054.186-.546-.136-.492Z" transform="translate(-100.44 -311.428)"/><path class="i" d="M131.937,328.949a41.329,41.329,0,0,1-5.931.059c-.328-.02-.327.49,0,.51a41.267,41.267,0,0,0,5.931-.059c.325-.027.328-.537,0-.51Z" transform="translate(-101.298 -312.569)"/><path class="i" d="M128.988,329.826q-2.338-.044-4.671-.22c-.328-.025-.326.486,0,.511q2.332.175,4.671.219a.255.255,0,0,0,0-.51Z" transform="translate(-100.351 -312.938)"/><path class="i" d="M126.388,330.67l-5.555-1.064c-.321-.061-.458.43-.136.492l5.555,1.064c.32.061.458-.43.135-.492Z" transform="translate(-98.355 -312.935)"/><path class="i" d="M126.775,330.913l-5.247-1.682c-.313-.1-.448.392-.136.492l5.247,1.683c.313.1.447-.392.136-.492Z" transform="translate(-98.748 -312.72)"/><path class="i" d="M126.545,332.576l-3.336-.966a.255.255,0,0,0-.135.492l3.335.965a.255.255,0,0,0,.136-.492Z" transform="translate(-99.69 -314.056)"/><path class="i" d="M129.562,331.72l-5.856-1.116c-.321-.061-.458.431-.136.492l5.856,1.115c.321.061.458-.43.136-.492Z" transform="translate(-99.967 -313.495)"/><path class="i" d="M127.14,333.67l-2.592-.533a.261.261,0,0,0-.313.178.258.258,0,0,0,.178.314l2.592.532a.261.261,0,0,0,.314-.178.257.257,0,0,0-.178-.313Z" transform="translate(-100.437 -314.916)"/><path class="i" d="M126.121,335.266A35.6,35.6,0,0,1,121,334.019c-.313-.1-.447.391-.136.492a35.6,35.6,0,0,0,5.118,1.248c.321.054.459-.438.136-.492Z" transform="translate(-98.454 -315.406)"/><path class="i" d="M126.652,336.767l-5.259-2.235c-.3-.127-.559.313-.258.441l5.259,2.235c.3.127.559-.313.257-.44Z" transform="translate(-98.629 -315.689)"/><path class="i" d="M122.655,335.469l-4.815-2.6c-.289-.156-.547.284-.257.441l4.815,2.6c.289.156.547-.284.258-.441Z" transform="translate(-96.639 -314.75)"/><path class="i" d="M123.627,338.086a24.654,24.654,0,0,1-5.871-4.04c-.24-.223-.6.137-.36.361a25.127,25.127,0,0,0,5.974,4.12c.294.145.552-.3.258-.44Z" transform="translate(-96.561 -315.389)"/><path class="i" d="M123.669,340.522l-1.84-1.781-.908-.879c-.245-.236-.542-.647-.932-.533a.255.255,0,0,0,.136.492c.055-.016.271.242.313.283l.393.38.834.807,1.644,1.591c.236.229.6-.132.361-.36Z" transform="translate(-97.96 -317.26)"/><path class="i" d="M122.524,343.119a24.671,24.671,0,0,0-2.911-3.332c-.238-.227-.6.134-.361.361a23.856,23.856,0,0,1,2.831,3.229.263.263,0,0,0,.349.091.257.257,0,0,0,.092-.349Z" transform="translate(-97.603 -318.609)"/><path class="i" d="M120.295,343.03l-2.445-3.39a.263.263,0,0,0-.349-.092.257.257,0,0,0-.092.349l2.445,3.391a.263.263,0,0,0,.349.091.257.257,0,0,0,.092-.349Z" transform="translate(-96.593 -318.496)"/><path class="i" d="M118.5,343.165a14.265,14.265,0,0,1-1.238-3.053.255.255,0,0,0-.492.136,14.884,14.884,0,0,0,1.29,3.175c.158.288.6.031.44-.258Z" transform="translate(-96.25 -318.73)"/><path class="i" d="M100.493,345.739a11.921,11.921,0,0,0,4.436-3.325c.208-.251-.151-.614-.361-.361a11.6,11.6,0,0,1-4.332,3.245c-.3.13-.041.569.257.44Z" transform="translate(-86.905 -319.873)"/><path class="i" d="M98.958,343.524a22.378,22.378,0,0,0,5.208-4.082c.226-.239-.134-.6-.36-.361a21.9,21.9,0,0,1-5.1,4,.255.255,0,0,0,.258.441Z" transform="translate(-86.049 -318.209)"/><path class="i" d="M98.3,343.454l3.18-2.235c.267-.187.012-.63-.258-.441l-3.18,2.235c-.267.188-.012.63.258.441Z" transform="translate(-85.685 -319.179)"/><path class="i" d="M93.654,342.962a15.777,15.777,0,0,0,5.044-3.116c.228-.236-.132-.6-.361-.361a15.441,15.441,0,0,1-4.941,3.036c-.3.135-.04.575.258.44Z" transform="translate(-83.069 -318.437)"/><path class="i" d="M93.143,340.549a65.047,65.047,0,0,0,6.745-2.815c.3-.143.037-.583-.258-.441a63.789,63.789,0,0,1-6.623,2.764c-.307.108-.175.6.136.492Z" transform="translate(-82.827 -317.235)"/><path class="i" d="M90.943,339.148,97.4,337.38a.255.255,0,0,0-.136-.492l-6.453,1.768a.255.255,0,0,0,.136.492Z" transform="translate(-81.59 -317.017)"/><path class="i" d="M90.882,339.59l3.56-.1c.328-.01.329-.52,0-.51l-3.56.1c-.328.01-.329.52,0,.51Z" transform="translate(-81.594 -318.195)"/><path class="i" d="M86.5,332.652q3.125,1.345,6.355,2.423c.313.1.447-.389.136-.492q-3.165-1.054-6.233-2.372c-.3-.128-.559.311-.258.441Z" transform="translate(-79.201 -314.387)"/><path class="i" d="M89.457,329.795a56.006,56.006,0,0,1,5.364,2.166c.3.137.555-.3.258-.441a57.518,57.518,0,0,0-5.486-2.217c-.311-.107-.445.385-.136.492Z" transform="translate(-80.835 -312.759)"/><path class="i" d="M90.041,337.7l5.921.219,2.935.108c.3.011.91.163,1.081-.187a.317.317,0,0,0-.462-.4.271.271,0,0,0-.117.288l0,.027c.058.323.549.186.492-.136l0-.027-.118.288-.2-.025-.075-.18q.149-.182-.046-.141l-.1,0-.3-.011-.607-.022-1.214-.045-2.378-.088-4.807-.177c-.328-.012-.328.5,0,.51Z" transform="translate(-81.123 -317.195)"/><path class="i" d="M90.447,327.474,95,329.935c.289.156.547-.284.258-.44L90.7,327.034c-.289-.156-.547.284-.257.44Z" transform="translate(-81.418 -311.477)"/></g></g><g transform="translate(23.712 20.78)"><path class="f" d="M99.635,326.973,98.312,328a7.64,7.64,0,0,0,.661.405,3.289,3.289,0,0,1,1.1.808l1.1,1.1a2.9,2.9,0,0,0,1.131.367h1.2c1.119,0,1.13.22,1.528,0s.031-.581.546-.805.22.364.514-.224l.294-.588s.073,0,0-1.066a3.752,3.752,0,0,0-.417-1.879l-.171-.141-1.313-1.52Z" transform="translate(-98.31 -319.483)"/><g transform="translate(1.445 0)"><g transform="translate(0 1.252)"><path class="g" d="M103.021,324.326a1.293,1.293,0,0,1-.64-1.4A4.077,4.077,0,0,1,103.535,321c.322-.37-.217-.914-.541-.541a4.664,4.664,0,0,0-1.381,2.5,2.015,2.015,0,0,0,1.022,2.032.394.394,0,0,0,.523-.137.385.385,0,0,0-.137-.523Z" transform="translate(-101.602 -318.419)"/><path class="g" d="M106.178,329.022c-1.167-1.332-.2-3.238.493-4.534.232-.434-.429-.821-.661-.386a8.373,8.373,0,0,0-1.1,2.9,3.275,3.275,0,0,0,.725,2.567c.325.371.865-.172.541-.541Z" transform="translate(-103.443 -320.428)"/><path class="g" d="M112.383,319.894a5.769,5.769,0,0,0,.489-3.637.383.383,0,1,0-.738.2,4.9,4.9,0,0,1-.412,3.048.393.393,0,0,0,.137.524.386.386,0,0,0,.523-.137Z" transform="translate(-107.253 -315.977)"/><path class="g" d="M110.137,331.707a6.289,6.289,0,0,0,.794-4.052.385.385,0,0,0-.471-.267.393.393,0,0,0-.267.471,5.445,5.445,0,0,1-.717,3.462.383.383,0,0,0,.661.386Z" transform="translate(-105.988 -322.372)"/></g><rect class="e" width="1.327" height="4.027" rx="0.573" transform="translate(2.363 0.973) rotate(32.988)"/><rect class="e" width="1.327" height="2.987" rx="0.573" transform="matrix(0.839, 0.544, -0.544, 0.839, 2.87, 3.941)"/><rect class="e" width="1.327" height="2.987" rx="0.573" transform="matrix(0.98, -0.197, 0.197, 0.98, 3.472, 4.961)"/><rect class="e" width="1.327" height="2.987" rx="0.573" transform="translate(3.895 0.501) rotate(-22.164)"/></g></g></g></g></svg>